<svg style="position: absolute; width: 0; height: 0;" width="0" height="0" version="1.1" xmlns="http://www.w3.org/2000/svg" xmlns:xlink="http://www.w3.org/1999/xlink">
<defs>
	<symbol id="icon-autoguru-road-help" viewBox="0 0 1024 1024">
		<title>road-help</title>
		<path class="path1" d="M25.679 1013.824c0.071-3.004 248.981-350.421 290.496-405.483 14.683-19.468 18.832-22.4 31.691-22.4 8.137 0 14.646 1.44 14.464 3.2s-56.39 98.24-124.907 214.4l-124.576 211.2-43.627 1.216c-23.994 0.669-43.59-0.291-43.546-2.133zM200.533 1012.749c0-2.269 43.904-98.75 97.564-214.4l97.564-210.274 99.456-2.406-2.319 36.539h38.4l-2.319-36.539 99.456 2.406 97.564 210.274c53.66 115.65 97.564 212.13 97.564 214.4 0 2.568-49.856 4.126-132.021 4.126h-132.021l-2.624-36.267h-89.6l-2.624 36.267h-132.021c-82.165 0-132.021-1.558-132.021-4.126zM552.363 896.341c-1.298-17.013-3.349-39.093-4.558-49.067l-2.198-18.133h-67.221l-2.198 18.133c-1.209 9.973-3.26 32.053-4.558 49.067l-2.36 30.933h85.453l-2.36-30.933zM540.388 738.475c-1.507-19.36-2.752-41.44-2.766-49.067l-0.026-13.867h-51.2l-0.026 13.867c-0.013 7.627-1.259 29.707-2.766 49.067l-2.74 35.2h62.263l-2.74-35.2zM907.087 1007.275c-12.139-18.88-245.76-417.621-245.76-419.456 0-1.034 6.658-1.88 14.795-1.88 12.858 0 17.007 2.932 31.691 22.4 40.309 53.444 290.432 402.432 290.496 405.333 0.044 1.76-19.076 3.2-42.49 3.2-39.471 0-43.017-0.698-48.742-9.6zM458.66 554.347c-76.826-14.8-139.511-56.631-182.005-121.459-36.303-55.379-52.237-126.938-42.029-188.736 20.102-121.692 107.394-210.428 228.459-232.213 36.156-6.51 46.394-6.82 75.934-2.298 70.225 10.75 118.895 35.872 167.138 86.268 39.202 40.951 59.078 80.337 71.723 142.116 8.882 43.401 8.903 44.663 1.373 83.989-18.647 97.38-69.244 166.658-152.365 208.619-48.779 24.623-115.040 33.969-168.22 23.725zM554.66 488.26c0-19.234 0.92-21.094 11.733-23.716 6.453-1.565 19.954-6.774 30.003-11.575l18.269-8.729 11.113 11.113c6.112 6.112 12.937 11.113 15.167 11.113 5.62 0 58.782-51.529 58.782-56.977 0-2.433-5.093-9.74-11.318-16.237l-11.318-11.814 11.318-25.22c6.229-13.867 11.328-27.371 11.328-30.016 0-2.844 7.823-4.8 19.2-4.8h19.2v-89.6l-36.267-0.030-25.002-60.958 11.434-9.835c6.293-5.412 11.435-11.066 11.435-12.565 0-4.307-26.15-33.374-43.927-48.83l-16.194-14.078-11.773 11.279c-6.475 6.204-13.588 11.279-15.806 11.28s-16.033-5.227-30.701-11.616l-26.667-11.617v-36.501h-89.6v37.052l-60.356 23.68-24.637-23.604-14.816 11.3c-26.967 20.569-53.798 58.238-41.481 58.238 2.077 0 6.765 4.561 10.418 10.137 6.17 9.416 5.826 12.141-4.843 38.334l-11.499 28.205-36.267 0.13v89.6l36.267 0.109 23.181 61.589-10.524 10.985c-5.781 6.037-10.517 12.971-10.517 15.403 0 5.023 52.945 56.977 58.063 56.977 1.835 0 8.717-5.156 15.294-11.457l11.959-11.457 16.008 8.86c8.804 4.873 22.249 10.181 29.875 11.796 13.368 2.831 13.867 3.691 13.867 23.93v20.994h89.6v-20.871zM457.401 411.706c-60.676-21.645-98.438-80.25-93.769-145.523 3.705-51.785 33.254-95.857 79.49-118.564 20.888-10.258 29.148-11.821 62.47-11.821s41.583 1.563 62.47 11.821c28.098 13.799 56.068 42.394 69.088 70.63 7.253 15.731 9.203 28.070 9.22 58.349 0.017 33.348-1.533 41.566-11.799 62.47-13.907 28.32-42.675 56.329-70.63 68.766-28.371 12.624-77.045 14.392-106.541 3.87zM449.536 332.066c3.638-9.482 117.009-9.482 120.646 0 1.763 4.594 8.948 6.4 25.466 6.4h23.010v-40.282c0-22.253-1.91-41.461-4.267-42.918-6.57-4.060-5.055-10.667 2.446-10.667 13.199 0 4.518-14.871-9.476-16.235-8.739-0.851-17.987-6.386-26.735-16l-13.375-14.698h-117.129l-11.697 14.66c-8.226 10.309-15.813 15.058-25.566 16-14.406 1.392-23.535 16.273-9.984 16.273 7.501 0 9.016 6.606 2.446 10.667-2.357 1.457-4.267 20.666-4.267 42.918v40.282h23.010c16.518 0 23.703-1.806 25.466-6.4zM420.971 271.622c-10.814-10.814 15.606-14.13 29.406-3.691 7.723 5.841 7.105 6.273-9.14 6.4-9.582 0.075-18.702-1.144-20.267-2.709zM563.2 270.961c0-4.572 14.422-9.132 29.156-9.218 6.073-0.035 9.271 2.022 8.202 5.275-2.027 6.187-37.355 9.92-37.355 3.947zM444.056 228.655c15.951-18.036 15.948-18.036 66.039-18.105l47.164-0.065 28.948 29.867h-152.495l10.344-11.696z"></path>
	</symbol>
	<symbol id="icon-autoguru-dtp" viewBox="0 0 1024 1024">
		<title>dtp</title>
		<path class="path1" d="M65.464 769.911c-5.475-6.709-17.397-33.692-23.36-52.866-25.3-81.364-35.086-141.401-24.466-150.122 3.205-2.633 23.107-13.403 44.227-23.932 37.53-18.71 51.21-22.673 170.667-49.446 30.507-6.837 66.621-15.676 80.258-19.642 24.079-7.004 24.711-7.567 22.061-19.633-3.323-15.13 0.441-15.83 11.247-2.093l8.126 10.33 33.022-8.8c18.162-4.84 35.901-11.222 39.421-14.181 11.687-9.827 52.33-19.012 84.122-19.012h31.373l29.472 28.8c33.618 32.852 45.903 58.051 50.074 102.704 2.032 21.759 1.225 28.621-3.799 32.326-10.027 7.394-16.306 22.045-16.306 38.048 0 11.886-2.961 16.966-15.437 26.482-21.43 16.346-50.343 26.512-89.709 31.542-18.436 2.356-43.667 7.336-56.071 11.066-19.382 5.83-22.902 8.55-25.066 19.373-3.067 15.337-9.985 16.67-9.985 1.924 0-5.867-1.44-10.655-3.2-10.641-6.94 0.055-95.471 25.244-141.868 40.366-26.986 8.795-57.706 18.762-68.267 22.148-28.418 9.112-120.276 12.932-126.532 5.262zM258.27 730.395c43.196-11.917 132.506-35.809 143.862-38.485 6.453-1.52 11.733-4.647 11.733-6.949 0-6.465-70.339-5.001-108.8 2.264-42.725 8.071-104.533 27.381-104.533 32.658 0 3.939 23.683 15.871 32.137 16.192 2.422 0.092 13.942-2.465 25.6-5.681zM182.647 711.444c6.388-8.24 6.634-6.639-11.964-77.602-14.123-53.883-21.347-68.451-33.746-68.041-3.743 0.123-19.285 6.363-34.54 13.867-24.203 11.906-28.456 15.815-33.407 30.709-10.2 30.68 2.693 78.455 27.538 102.042 11.876 11.275 13.363 11.561 46.404 8.937 24.623-1.955 35.69-4.717 39.718-9.911zM461.694 660.893c36.925-32.882 21.177-137.745-26.741-178.067-16.78-14.12-31.638-14.092-61.638 0.113-25.955 12.289-42.281 29.22-38.267 39.68 2.396 6.239 14.184 49.684 29.49 108.687 10.083 38.868 14.978 42.4 54.965 39.694 23.988-1.624 35.854-4.468 42.189-10.109zM224.928 539.549c40.462-11.121 87.61-30.753 113.029-47.066 21.554-13.831 27.059-23.502 10.849-19.061-5.28 1.447-23.040 6.429-39.468 11.072s-46.186 12.407-66.133 17.253c-52.303 12.707-71.762 20.901-81.234 34.205-4.601 6.461-8.365 13.11-8.365 14.774 0 4.28 35.082-1.219 71.322-11.179zM883.531 663.347c-43.465-8.528-83.654-25.895-166.182-71.813-21.996-12.239-50.316-26.818-62.935-32.398-12.629-5.598-22.938-12.186-22.938-14.643 0-2.476 0.824-4.502 1.831-4.502s29.327 13.426 62.935 29.835c60.191 29.39 82.261 35.277 97.096 25.891 9.954-6.299-0.577-14.918-43.81-35.854-41.81-20.248-79.94-34.54-107.069-40.137-18.667-3.85-24.45-11.583-11.245-15.037 6.151-1.609 17.804-21.413 40.707-69.185 17.649-36.813 32.029-70.124 31.954-74.022-0.177-9.276-6.424-16.76-29.751-35.645-26.204-21.213-37.994-23.528-61.604-12.098-22.344 10.817-45.677 40.199-60.505 76.196-5.481 13.304-12.27 23.593-15.086 22.866-25.043-6.47-74.967 0.138-101.663 13.457-7.831 3.907-14.854 6.487-15.606 5.735s0.417-7.591 2.598-15.196c4.301-14.998 2.378-24.171-7.473-35.649-5.411-6.304-5.529-10.335-0.809-27.733 10.934-40.308 45.391-94.792 55.859-88.32 5.971 3.69 32.781-9.915 37.717-19.141 10.229-19.113 72.066-6.938 111.746 22.002 10.22 7.454 31.441 19.747 47.155 27.32l28.574 13.768 11.117-8.745c13.044-10.26 19.539-7.131 9.112 4.39-6.024 6.657-6.245 8.734-1.36 12.788 8.363 6.941 87.617 43.561 135.182 62.467 56.655 22.516 83.214 36.434 115.227 60.385 41.609 31.13 42.633 32.256 42.633 46.455 0 23.228-33.919 100.533-66.864 152.395-19.785 31.144-20.153 31.301-56.549 24.161zM900.317 602.921c21.941-14.937 37.417-37.229 44.291-63.795 9.14-35.325 4.238-48.626-26.165-70.987-37.973-27.93-40.318-26.605-74.336 41.981-29.827 60.14-33.282 72.335-22.921 80.934 5.821 4.831 49.835 20.208 60.327 21.076 2.586 0.214 11.048-3.931 18.804-9.211zM874.682 431.367c0-11.954-9.127-26.039-22.634-34.932-23.463-15.444-160.683-79.906-163.693-76.899-1.574 1.574 1.785 7.821 7.466 13.881 11.283 12.037 65.113 52.948 69.666 52.948 1.556 0 7.929 3.342 14.163 7.427 12.251 8.027 86.579 43.319 91.832 43.602 1.76 0.095 3.2-2.617 3.2-6.027z"></path>
	</symbol>
	<symbol id="icon-autoguru-no-wheel" viewBox="0 0 1024 1024">
		<title>no-wheel</title>
		<path class="path1" d="M448.068 1003.145c-3.52-2.026-15.040-4.967-25.6-6.534-57.764-8.576-137.742-42.776-195.663-83.664-99.946-70.56-178.64-193.007-197.28-306.961-2.513-15.361-6.328-35.98-8.479-45.817-8.992-41.141 1.412-134.683 21.975-197.577 56.211-171.916 195.85-296.523 376.047-335.558 48.234-10.449 141.384-10.312 191.13 0.28 149.866 31.909 276.48 128.693 343.757 262.775 98.645 196.557 56.829 429.943-104.090 580.949-68.502 64.287-151.224 107.117-243.951 126.31-35.717 7.393-147.927 11.505-157.867 5.784zM569.668 887.228c53.272-7.59 128.034-37.891 162.133-65.71l12.8-10.443-144.971-145.551h-111.77c-111.206 0-133.659 2.458-133.659 14.634 0 3.813-5.801 7.4-14.649 9.060-17.898 3.358-94.457 0.904-98.509-3.157-1.607-1.611-3.202-43.851-3.546-93.867-0.591-85.999-0.104-92.068 8.973-111.746 5.279-11.445 9.598-21.476 9.598-22.29s-5.76-4.46-12.8-8.101c-9.549-4.938-12.766-9.572-12.664-18.243 0.258-22.114 9.096-27.762 46.862-29.948 52.972-3.066 52.507-6.058-10.745-69.158l-52.845-52.716-8.815 10.366c-15.707 18.471-51.265 94.792-60.491 129.833-12.758 48.459-12.711 135.342 0.1 183.467 50.865 191.089 230.915 311.228 424.994 283.576zM836.482 711.386c36.082-58.481 55.32-127.191 55.32-197.601 0-56.702-7.546-96.758-27.406-145.469-60.58-148.586-210.797-243.811-370.586-234.916-53.78 2.994-98.413 14.371-144.698 36.888-60.751 29.552-61.792 20.756 11.131 93.802l63.365 63.471 113.756 1.513c130.662 1.738 123.146-0.335 158.413 43.674l21.764 27.159 32.428 2.081c27.020 1.734 33.724 3.682 40.199 11.679 12.786 15.79 10.119 29.441-7.162 36.659-8.213 3.432-14.933 7.357-14.933 8.724s4.32 8.541 9.6 15.943c9.248 12.966 9.63 17.193 10.433 115.439l0.833 101.98 16.033 16.419c8.818 9.031 17.592 16.419 19.496 16.419s7.314-6.24 12.019-13.867zM374.794 517.953c-1.186-10.237-4.342-12.957-20.6-17.751-10.56-3.114-32.64-6.068-49.067-6.563-28.962-0.874-29.905-0.579-31.114 9.769-2.478 21.195 6.507 26.207 52.709 29.4 23.323 1.612 43.994 1.65 45.937 0.083s2.903-8.288 2.133-14.937zM737.597 528.577c16.329-5.692 22.352-22.328 11.877-32.803-6.103-6.103-11.422-6.337-45.694-2.011-43.394 5.477-50.903 9.495-50.903 27.229v12.278h35.628c19.597 0 41.687-2.112 49.094-4.693zM706.973 441.455c0.782-2.391-10.917-19.951-25.998-39.025-19.666-24.871-31.438-35.915-41.626-39.059-18.072-5.574-182.74-11.367-182.74-6.429 0 2.026 18.72 22.325 41.602 45.107l41.602 41.424 72.533 1.36c93.143 1.746 92.952 1.753 94.631-3.379zM360.622 426.601c-9.166-9.387-17.94-17.067-19.499-17.067s-7.916 7.68-14.128 17.067l-11.294 17.067h61.586l-16.665-17.067z"></path>
	</symbol>
</defs>
</svg>
