<svg style="position: absolute; width: 0; height: 0;" width="0" height="0" version="1.1" xmlns="http://www.w3.org/2000/svg" xmlns:xlink="http://www.w3.org/1999/xlink">
<defs>
	<symbol id="icon-autoguru-road-help" viewBox="0 0 1024 1024">
		<title>road-help</title>
		<path class="path1" d="M25.679 1013.824c0.071-3.004 248.981-350.421 290.496-405.483 14.683-19.468 18.832-22.4 31.691-22.4 8.137 0 14.646 1.44 14.464 3.2s-56.39 98.24-124.907 214.4l-124.576 211.2-43.627 1.216c-23.994 0.669-43.59-0.291-43.546-2.133zM200.533 1012.749c0-2.269 43.904-98.75 97.564-214.4l97.564-210.274 99.456-2.406-2.319 36.539h38.4l-2.319-36.539 99.456 2.406 97.564 210.274c53.66 115.65 97.564 212.13 97.564 214.4 0 2.568-49.856 4.126-132.021 4.126h-132.021l-2.624-36.267h-89.6l-2.624 36.267h-132.021c-82.165 0-132.021-1.558-132.021-4.126zM552.363 896.341c-1.298-17.013-3.349-39.093-4.558-49.067l-2.198-18.133h-67.221l-2.198 18.133c-1.209 9.973-3.26 32.053-4.558 49.067l-2.36 30.933h85.453l-2.36-30.933zM540.388 738.475c-1.507-19.36-2.752-41.44-2.766-49.067l-0.026-13.867h-51.2l-0.026 13.867c-0.013 7.627-1.259 29.707-2.766 49.067l-2.74 35.2h62.263l-2.74-35.2zM907.087 1007.275c-12.139-18.88-245.76-417.621-245.76-419.456 0-1.034 6.658-1.88 14.795-1.88 12.858 0 17.007 2.932 31.691 22.4 40.309 53.444 290.432 402.432 290.496 405.333 0.044 1.76-19.076 3.2-42.49 3.2-39.471 0-43.017-0.698-48.742-9.6zM458.66 554.347c-76.826-14.8-139.511-56.631-182.005-121.459-36.303-55.379-52.237-126.938-42.029-188.736 20.102-121.692 107.394-210.428 228.459-232.213 36.156-6.51 46.394-6.82 75.934-2.298 70.225 10.75 118.895 35.872 167.138 86.268 39.202 40.951 59.078 80.337 71.723 142.116 8.882 43.401 8.903 44.663 1.373 83.989-18.647 97.38-69.244 166.658-152.365 208.619-48.779 24.623-115.040 33.969-168.22 23.725zM554.66 488.26c0-19.234 0.92-21.094 11.733-23.716 6.453-1.565 19.954-6.774 30.003-11.575l18.269-8.729 11.113 11.113c6.112 6.112 12.937 11.113 15.167 11.113 5.62 0 58.782-51.529 58.782-56.977 0-2.433-5.093-9.74-11.318-16.237l-11.318-11.814 11.318-25.22c6.229-13.867 11.328-27.371 11.328-30.016 0-2.844 7.823-4.8 19.2-4.8h19.2v-89.6l-36.267-0.030-25.002-60.958 11.434-9.835c6.293-5.412 11.435-11.066 11.435-12.565 0-4.307-26.15-33.374-43.927-48.83l-16.194-14.078-11.773 11.279c-6.475 6.204-13.588 11.279-15.806 11.28s-16.033-5.227-30.701-11.616l-26.667-11.617v-36.501h-89.6v37.052l-60.356 23.68-24.637-23.604-14.816 11.3c-26.967 20.569-53.798 58.238-41.481 58.238 2.077 0 6.765 4.561 10.418 10.137 6.17 9.416 5.826 12.141-4.843 38.334l-11.499 28.205-36.267 0.13v89.6l36.267 0.109 23.181 61.589-10.524 10.985c-5.781 6.037-10.517 12.971-10.517 15.403 0 5.023 52.945 56.977 58.063 56.977 1.835 0 8.717-5.156 15.294-11.457l11.959-11.457 16.008 8.86c8.804 4.873 22.249 10.181 29.875 11.796 13.368 2.831 13.867 3.691 13.867 23.93v20.994h89.6v-20.871zM457.401 411.706c-60.676-21.645-98.438-80.25-93.769-145.523 3.705-51.785 33.254-95.857 79.49-118.564 20.888-10.258 29.148-11.821 62.47-11.821s41.583 1.563 62.47 11.821c28.098 13.799 56.068 42.394 69.088 70.63 7.253 15.731 9.203 28.070 9.22 58.349 0.017 33.348-1.533 41.566-11.799 62.47-13.907 28.32-42.675 56.329-70.63 68.766-28.371 12.624-77.045 14.392-106.541 3.87zM449.536 332.066c3.638-9.482 117.009-9.482 120.646 0 1.763 4.594 8.948 6.4 25.466 6.4h23.010v-40.282c0-22.253-1.91-41.461-4.267-42.918-6.57-4.060-5.055-10.667 2.446-10.667 13.199 0 4.518-14.871-9.476-16.235-8.739-0.851-17.987-6.386-26.735-16l-13.375-14.698h-117.129l-11.697 14.66c-8.226 10.309-15.813 15.058-25.566 16-14.406 1.392-23.535 16.273-9.984 16.273 7.501 0 9.016 6.606 2.446 10.667-2.357 1.457-4.267 20.666-4.267 42.918v40.282h23.010c16.518 0 23.703-1.806 25.466-6.4zM420.971 271.622c-10.814-10.814 15.606-14.13 29.406-3.691 7.723 5.841 7.105 6.273-9.14 6.4-9.582 0.075-18.702-1.144-20.267-2.709zM563.2 270.961c0-4.572 14.422-9.132 29.156-9.218 6.073-0.035 9.271 2.022 8.202 5.275-2.027 6.187-37.355 9.92-37.355 3.947zM444.056 228.655c15.951-18.036 15.948-18.036 66.039-18.105l47.164-0.065 28.948 29.867h-152.495l10.344-11.696z"></path>
	</symbol>
	<symbol id="icon-autoguru-dtp" viewBox="0 0 1024 1024">
		<title>dtp</title>
		<path class="path1" d="M65.464 769.911c-5.475-6.709-17.397-33.692-23.36-52.866-25.3-81.364-35.086-141.401-24.466-150.122 3.205-2.633 23.107-13.403 44.227-23.932 37.53-18.71 51.21-22.673 170.667-49.446 30.507-6.837 66.621-15.676 80.258-19.642 24.079-7.004 24.711-7.567 22.061-19.633-3.323-15.13 0.441-15.83 11.247-2.093l8.126 10.33 33.022-8.8c18.162-4.84 35.901-11.222 39.421-14.181 11.687-9.827 52.33-19.012 84.122-19.012h31.373l29.472 28.8c33.618 32.852 45.903 58.051 50.074 102.704 2.032 21.759 1.225 28.621-3.799 32.326-10.027 7.394-16.306 22.045-16.306 38.048 0 11.886-2.961 16.966-15.437 26.482-21.43 16.346-50.343 26.512-89.709 31.542-18.436 2.356-43.667 7.336-56.071 11.066-19.382 5.83-22.902 8.55-25.066 19.373-3.067 15.337-9.985 16.67-9.985 1.924 0-5.867-1.44-10.655-3.2-10.641-6.94 0.055-95.471 25.244-141.868 40.366-26.986 8.795-57.706 18.762-68.267 22.148-28.418 9.112-120.276 12.932-126.532 5.262zM258.27 730.395c43.196-11.917 132.506-35.809 143.862-38.485 6.453-1.52 11.733-4.647 11.733-6.949 0-6.465-70.339-5.001-108.8 2.264-42.725 8.071-104.533 27.381-104.533 32.658 0 3.939 23.683 15.871 32.137 16.192 2.422 0.092 13.942-2.465 25.6-5.681zM182.647 711.444c6.388-8.24 6.634-6.639-11.964-77.602-14.123-53.883-21.347-68.451-33.746-68.041-3.743 0.123-19.285 6.363-34.54 13.867-24.203 11.906-28.456 15.815-33.407 30.709-10.2 30.68 2.693 78.455 27.538 102.042 11.876 11.275 13.363 11.561 46.404 8.937 24.623-1.955 35.69-4.717 39.718-9.911zM461.694 660.893c36.925-32.882 21.177-137.745-26.741-178.067-16.78-14.12-31.638-14.092-61.638 0.113-25.955 12.289-42.281 29.22-38.267 39.68 2.396 6.239 14.184 49.684 29.49 108.687 10.083 38.868 14.978 42.4 54.965 39.694 23.988-1.624 35.854-4.468 42.189-10.109zM224.928 539.549c40.462-11.121 87.61-30.753 113.029-47.066 21.554-13.831 27.059-23.502 10.849-19.061-5.28 1.447-23.040 6.429-39.468 11.072s-46.186 12.407-66.133 17.253c-52.303 12.707-71.762 20.901-81.234 34.205-4.601 6.461-8.365 13.11-8.365 14.774 0 4.28 35.082-1.219 71.322-11.179zM883.531 663.347c-43.465-8.528-83.654-25.895-166.182-71.813-21.996-12.239-50.316-26.818-62.935-32.398-12.629-5.598-22.938-12.186-22.938-14.643 0-2.476 0.824-4.502 1.831-4.502s29.327 13.426 62.935 29.835c60.191 29.39 82.261 35.277 97.096 25.891 9.954-6.299-0.577-14.918-43.81-35.854-41.81-20.248-79.94-34.54-107.069-40.137-18.667-3.85-24.45-11.583-11.245-15.037 6.151-1.609 17.804-21.413 40.707-69.185 17.649-36.813 32.029-70.124 31.954-74.022-0.177-9.276-6.424-16.76-29.751-35.645-26.204-21.213-37.994-23.528-61.604-12.098-22.344 10.817-45.677 40.199-60.505 76.196-5.481 13.304-12.27 23.593-15.086 22.866-25.043-6.47-74.967 0.138-101.663 13.457-7.831 3.907-14.854 6.487-15.606 5.735s0.417-7.591 2.598-15.196c4.301-14.998 2.378-24.171-7.473-35.649-5.411-6.304-5.529-10.335-0.809-27.733 10.934-40.308 45.391-94.792 55.859-88.32 5.971 3.69 32.781-9.915 37.717-19.141 10.229-19.113 72.066-6.938 111.746 22.002 10.22 7.454 31.441 19.747 47.155 27.32l28.574 13.768 11.117-8.745c13.044-10.26 19.539-7.131 9.112 4.39-6.024 6.657-6.245 8.734-1.36 12.788 8.363 6.941 87.617 43.561 135.182 62.467 56.655 22.516 83.214 36.434 115.227 60.385 41.609 31.13 42.633 32.256 42.633 46.455 0 23.228-33.919 100.533-66.864 152.395-19.785 31.144-20.153 31.301-56.549 24.161zM900.317 602.921c21.941-14.937 37.417-37.229 44.291-63.795 9.14-35.325 4.238-48.626-26.165-70.987-37.973-27.93-40.318-26.605-74.336 41.981-29.827 60.14-33.282 72.335-22.921 80.934 5.821 4.831 49.835 20.208 60.327 21.076 2.586 0.214 11.048-3.931 18.804-9.211zM874.682 431.367c0-11.954-9.127-26.039-22.634-34.932-23.463-15.444-160.683-79.906-163.693-76.899-1.574 1.574 1.785 7.821 7.466 13.881 11.283 12.037 65.113 52.948 69.666 52.948 1.556 0 7.929 3.342 14.163 7.427 12.251 8.027 86.579 43.319 91.832 43.602 1.76 0.095 3.2-2.617 3.2-6.027z"></path>
	</symbol>
	<symbol id="icon-autoguru-dtp-2" viewBox="0 0 1024 1024">
		<title>dtp-2</title>
		<path class="path1" d="M50.381 915.558c-5.714-9.796-18.156-49.22-24.379-77.21-26.405-118.818-36.618-206.507-25.535-219.238 3.345-3.823 24.116-19.558 46.159-34.953 39.168-27.322 53.446-33.11 178.121-72.206 31.839-9.984 69.53-22.892 83.763-28.684 25.131-10.228 25.79-11.050 23.025-28.671-3.468-22.095 0.46-23.117 11.738-3.056l8.481 15.085 34.464-12.851c18.955-7.068 37.468-16.387 41.141-20.709 12.197-14.35 54.617-27.764 87.794-27.764h32.743l30.759 42.056c35.086 47.974 47.906 84.774 52.262 149.978 2.121 31.774 1.279 41.796-3.965 47.206-10.465 10.797-17.018 32.193-17.018 55.562 0 17.357-3.091 24.776-16.111 38.673-22.366 23.87-52.541 38.714-93.628 46.063-19.242 3.441-45.575 10.712-58.518 16.16-20.229 8.514-23.902 12.486-26.161 28.291-3.201 22.397-10.421 24.344-10.421 2.81 0-8.567-1.503-15.56-3.34-15.54-7.243 0.080-99.642 36.864-148.064 58.948-28.165 12.844-60.225 27.398-71.247 32.343-29.659 13.307-125.529 18.885-132.058 7.684zM251.607 857.853c45.083-17.403 138.291-52.292 150.146-56.201 6.735-2.22 12.246-6.786 12.246-10.148 0-9.441-73.411-7.303-113.551 3.306-44.592 11.787-109.097 39.984-109.097 47.691 0 5.752 24.717 23.177 33.54 23.645 2.528 0.134 14.551-3.599 26.718-8.296zM172.681 830.179c6.667-12.033 6.924-9.695-12.487-113.323-14.739-78.688-22.28-99.959-35.219-99.362-3.907 0.18-20.127 9.292-36.048 20.25-25.26 17.386-29.698 23.095-34.867 44.844-10.645 44.803 2.811 114.569 28.74 149.012 12.395 16.464 13.947 16.883 48.432 13.052 25.698-2.855 37.25-6.888 41.452-14.474zM463.913 756.358c38.537-48.019 22.101-201.151-27.908-260.035-17.513-20.619-33.019-20.579-64.331 0.164-27.089 17.946-44.128 42.67-39.939 57.945 2.5 9.111 14.803 72.554 30.778 158.717 10.523 56.76 15.632 61.918 57.364 57.965 25.035-2.372 37.42-6.524 44.032-14.762zM216.818 579.172c42.23-16.24 91.436-44.909 117.965-68.731 22.496-20.198 28.24-34.321 11.323-27.835-5.51 2.113-24.046 9.389-41.192 16.169-17.144 6.78-48.203 18.118-69.021 25.195-54.586 18.557-74.895 30.522-84.78 49.951-4.802 9.436-8.731 19.145-8.731 21.575 0 6.25 36.615-1.78 74.438-16.325zM904.195 759.956c-45.363-12.454-87.306-37.816-173.438-104.871-22.956-17.873-52.514-39.165-65.683-47.312-13.181-8.175-23.939-17.795-23.939-21.384 0-3.615 0.86-6.574 1.911-6.574s30.608 19.606 65.683 43.568c62.819 42.919 85.852 51.514 101.335 37.809 10.389-9.199-0.602-21.785-45.725-52.357-43.636-29.569-83.432-50.439-111.746-58.614-19.482-5.621-25.518-16.915-11.736-21.959 6.42-2.349 18.582-31.27 42.486-101.031 18.42-53.757 33.427-102.403 33.349-108.093-0.185-13.546-6.704-24.475-31.050-52.053-27.348-30.977-39.653-34.359-64.294-17.666-23.32 15.796-47.671 58.703-63.147 111.271-5.72 19.428-12.805 34.454-15.744 33.391-26.136-9.448-78.24 0.201-106.103 19.651-8.173 5.705-15.502 9.474-16.288 8.375s0.435-11.084 2.712-22.191c4.489-21.901 2.482-35.297-7.8-52.060-5.647-9.206-5.77-15.092-0.845-40.499 11.411-58.863 47.374-138.424 58.3-128.976 6.231 5.388 34.212-14.48 39.366-27.951 10.676-27.911 75.213-10.131 116.627 32.129 10.667 10.885 32.814 28.838 49.213 39.895l29.822 20.105 11.603-12.77c13.614-14.984 20.392-10.414 9.51 6.411-6.287 9.721-6.518 12.755-1.419 18.675 8.728 10.136 91.443 63.614 141.087 91.221 59.129 32.881 86.849 53.204 120.259 88.18 43.424 45.459 44.493 47.104 44.493 67.84 0 33.92-35.4 146.811-69.782 222.546-20.649 45.479-21.034 45.708-59.020 35.284zM921.714 671.715c22.899-21.812 39.052-54.368 46.227-93.16 9.539-51.586 4.423-71.011-27.308-103.663-39.632-40.786-42.080-38.851-77.582 61.303-31.13 87.822-34.734 105.632-23.922 118.19 6.075 7.055 52.012 29.51 62.962 30.777 2.699 0.313 11.531-5.74 19.625-13.451zM894.96 421.193c0-17.457-9.526-38.025-23.623-51.012-24.487-22.553-167.7-116.688-170.841-112.295-1.643 2.299 1.863 11.421 7.792 20.271 11.776 17.578 67.956 77.319 72.707 77.319 1.624 0 8.275 4.88 14.781 10.846 12.786 11.722 90.361 63.259 95.843 63.672 1.837 0.139 3.34-3.822 3.34-8.801z"></path>
	</symbol>
	<symbol id="icon-autoguru-no-wheel" viewBox="0 0 1024 1024">
		<title>no-wheel</title>
		<path class="path1" d="M448.068 1003.145c-3.52-2.026-15.040-4.967-25.6-6.534-57.764-8.576-137.742-42.776-195.663-83.664-99.946-70.56-178.64-193.007-197.28-306.961-2.513-15.361-6.328-35.98-8.479-45.817-8.992-41.141 1.412-134.683 21.975-197.577 56.211-171.916 195.85-296.523 376.047-335.558 48.234-10.449 141.384-10.312 191.13 0.28 149.866 31.909 276.48 128.693 343.757 262.775 98.645 196.557 56.829 429.943-104.090 580.949-68.502 64.287-151.224 107.117-243.951 126.31-35.717 7.393-147.927 11.505-157.867 5.784zM569.668 887.228c53.272-7.59 128.034-37.891 162.133-65.71l12.8-10.443-144.971-145.551h-111.77c-111.206 0-133.659 2.458-133.659 14.634 0 3.813-5.801 7.4-14.649 9.060-17.898 3.358-94.457 0.904-98.509-3.157-1.607-1.611-3.202-43.851-3.546-93.867-0.591-85.999-0.104-92.068 8.973-111.746 5.279-11.445 9.598-21.476 9.598-22.29s-5.76-4.46-12.8-8.101c-9.549-4.938-12.766-9.572-12.664-18.243 0.258-22.114 9.096-27.762 46.862-29.948 52.972-3.066 52.507-6.058-10.745-69.158l-52.845-52.716-8.815 10.366c-15.707 18.471-51.265 94.792-60.491 129.833-12.758 48.459-12.711 135.342 0.1 183.467 50.865 191.089 230.915 311.228 424.994 283.576zM836.482 711.386c36.082-58.481 55.32-127.191 55.32-197.601 0-56.702-7.546-96.758-27.406-145.469-60.58-148.586-210.797-243.811-370.586-234.916-53.78 2.994-98.413 14.371-144.698 36.888-60.751 29.552-61.792 20.756 11.131 93.802l63.365 63.471 113.756 1.513c130.662 1.738 123.146-0.335 158.413 43.674l21.764 27.159 32.428 2.081c27.020 1.734 33.724 3.682 40.199 11.679 12.786 15.79 10.119 29.441-7.162 36.659-8.213 3.432-14.933 7.357-14.933 8.724s4.32 8.541 9.6 15.943c9.248 12.966 9.63 17.193 10.433 115.439l0.833 101.98 16.033 16.419c8.818 9.031 17.592 16.419 19.496 16.419s7.314-6.24 12.019-13.867zM374.794 517.953c-1.186-10.237-4.342-12.957-20.6-17.751-10.56-3.114-32.64-6.068-49.067-6.563-28.962-0.874-29.905-0.579-31.114 9.769-2.478 21.195 6.507 26.207 52.709 29.4 23.323 1.612 43.994 1.65 45.937 0.083s2.903-8.288 2.133-14.937zM737.597 528.577c16.329-5.692 22.352-22.328 11.877-32.803-6.103-6.103-11.422-6.337-45.694-2.011-43.394 5.477-50.903 9.495-50.903 27.229v12.278h35.628c19.597 0 41.687-2.112 49.094-4.693zM706.973 441.455c0.782-2.391-10.917-19.951-25.998-39.025-19.666-24.871-31.438-35.915-41.626-39.059-18.072-5.574-182.74-11.367-182.74-6.429 0 2.026 18.72 22.325 41.602 45.107l41.602 41.424 72.533 1.36c93.143 1.746 92.952 1.753 94.631-3.379zM360.622 426.601c-9.166-9.387-17.94-17.067-19.499-17.067s-7.916 7.68-14.128 17.067l-11.294 17.067h61.586l-16.665-17.067z"></path>
	</symbol>
	<symbol id="icon-autoguru-traffic" viewBox="0 0 1024 1024">
		<title>traffic</title>
		<path class="path1" d="M188.436 933.685l-16.886-3.116-3.832-99.933c-4.636-120.921 0.216-200.226 13.896-227.097 12.547-24.646 11.327-33.58-5.769-42.253-17.302-8.776-22.439-25.659-14.174-46.584 8.275-20.95 22.431-27.273 61.257-27.359l34.492-0.075 72.207-106.573 52.454-3.673c28.85-2.020 112.129-2.808 185.065-1.751 117.759 1.706 133.882 2.931 143.944 10.933 6.232 4.957 24.991 29.724 41.689 55.038l30.358 46.024 29.825 0.033c50.38 0.046 68.122 11.047 70.237 43.533 1.226 18.835-0.228 21.781-14.025 28.424-24.070 11.588-24.98 14.061-13.164 35.738 7.554 13.856 11.992 31.613 14.939 59.772 4.625 44.176 2.59 260.271-2.585 274.511-2.981 8.204-9.022 8.681-71.406 5.631-41.838-2.045-69.35-5.506-71.255-8.962-1.706-3.097-3.131-10.82-3.166-17.162l-0.064-11.535-191.027 0.511c-105.065 0.281-195.708 2.095-201.428 4.031-6.287 2.128-11.37 8.508-12.853 16.134-1.7 8.744-6.281 13.611-14.93 15.862-15.739 4.097-91.394 4.024-113.794-0.11zM342.529 671.947c0-24.946-5.662-29.347-50.165-38.983-41.362-8.956-69.961-9.173-75.84-0.574-5.382 7.873 0.562 40.209 8.945 48.653 6.794 6.844 25.418 9.397 75.901 10.403l41.163 0.82v-20.319zM797.648 689.134c18.015-4.374 30.371-19.905 30.371-38.177 0-24.113-12.626-28.252-65.766-21.562-54.469 6.858-65.105 13.798-65.105 42.49v20.381h43.799c24.089 0 49.606-1.409 56.699-3.132zM768.92 547.681c0-5.645-29.374-54.512-54.009-89.848-13.825-19.831-23.301-28.365-36.185-32.59-20.937-6.864-261.332-9.203-303.194-2.95l-28.227 4.217-31.202 47.033c-32.432 48.883-45.322 70.305-45.322 75.31 0 1.615 112.086 3.022 249.077 3.126 139.681 0.106 249.077-1.781 249.077-4.296zM22.883 448.136c-13.146-3.543-16.057-25.524-15.525-117.17 0.331-56.915 2.226-82.868 7.298-99.929l6.851-23.064-12.597-14.38c-9.825-11.214-11.714-16.382-8.583-23.484 6.769-15.353 14.063-19.665 39.608-23.418 23.387-3.435 25.95-5.303 52.77-38.498l28.189-34.889 68.222-3.609c80.090-4.237 167.69 0.844 183.566 10.647 6.135 3.788 17.504 16.759 25.264 28.823 19.897 30.931 24.479 34.391 45.905 34.659 24.531 0.308 38.428 9.193 43.519 27.828 4.222 15.447 3.429 16.965-16.492 31.543-7.040 5.152-7.062 6.191-0.366 17.796 5.068 8.783 7.111 22.922 7.111 49.211v36.889l-26.386 2.775c-14.512 1.526-45.383 4.093-68.598 5.704-63.81 4.428-68.632 6.938-105.253 54.792-17.572 22.96-31.949 43.668-31.949 46.022 0 2.35-28.361 4.272-63.024 4.272-63.733 0-71.981 2.236-77.106 20.905-1.648 6.003-65.601 11.102-82.423 6.571zM123.611 270.852c7.638-15.004-17.622-27.837-59.707-30.335-22.079-1.31-23.281-0.737-24.488 11.666-1.736 17.851 5.95 24.003 33.059 26.456 29.548 2.676 47.175-0.009 51.136-7.789zM442.264 269.523c5.896-4.69 9.938-12.188 9.179-17.026-1.889-12.035-51.51-14.769-72.726-4.007-14.482 7.346-19.767 21.070-11.918 30.954 5.396 6.796 64.166-0.929 75.468-9.92zM405.863 180.97c0-10.712-43.212-67.251-55.313-72.372-8.379-3.546-49.682-5.71-108.972-5.71-109.687 0-110.829 0.362-139.411 44.295-9.431 14.497-17.148 27.598-17.148 29.112s4.274 3.753 9.499 4.974c17.115 4.002 311.341 3.717 311.341-0.301zM936.741 447.989c-6.385-1.335-11.609-4.415-11.609-6.845s-2.985-8.042-6.634-12.472c-5.434-6.596-17.948-8.053-69.169-8.053h-62.537l-7.553-14.093c-4.154-7.751-18.932-28.521-32.84-46.153-29.214-37.038-37.031-40.624-97.783-44.837-23.22-1.611-54.090-4.178-68.598-5.704l-26.386-2.775 0.134-36.747c0.088-24.156 2.258-40.154 6.332-46.694 8.7-13.963 7.935-16.885-6.848-26.165-11.088-6.961-12.645-10.249-10.374-21.912 4.407-22.635 17.104-31.66 44.544-31.66 24.377 0 24.429-0.037 40.694-25.973 25.564-40.775 32.533-44.077 101.77-48.238 33.086-1.989 87.228-2.027 120.316-0.085l60.156 3.531 28.009 35.384c27.851 35.183 28.137 35.384 50.775 35.384 38.97 0 55.114 24.659 32.815 50.118l-12.212 13.942 6.591 23.062c12.325 43.126 12.022 199.262-0.417 214.362-2.925 3.551-64.918 5.607-79.178 2.627zM666.472 268.48c2.932-10.756-17.068-21.047-47.877-24.635-26.187-3.049-30.371-2.363-32.82 5.382-1.672 5.29 0.116 12.796 4.426 18.576 6.15 8.249 12.271 9.48 40.922 8.227 21.278-0.93 34.303-3.713 35.35-7.552zM985.78 266.284c9.217-15.975 4.226-25.072-13.614-24.813-37.674 0.547-69.291 15.847-62.067 30.035 1.682 3.304 16.565 5.617 36.144 5.617 29.101 0 34.070-1.362 39.538-10.838zM942.157 176.499c3.564-4.33-1.655-14.127-20.476-38.437l-25.26-32.624h-217.171l-26.93 35.176c-14.812 19.347-26.93 37.302-26.93 39.897 0 7.219 310.754 3.281 316.78-4.014z"></path>
	</symbol>
	<symbol id="icon-autoguru-feedback" viewBox="0 0 1024 1024">
		<title>feedback</title>
		<path class="path1" d="M12.362 796.52c-6.993-6.262-6.993-604.651 0-610.902 7.010-6.277 984.891-6.277 991.909 0 6.993 6.262 6.993 604.651 0 610.902-7.010 6.277-984.891 6.277-991.909 0zM932.664 525.281c0-113.912-0.517-207.115-1.15-207.115s-95.205 61.614-210.164 136.924c-114.957 75.308-211.73 136.348-215.048 135.642-3.318-0.704-97.683-61.298-209.699-134.653-112.016-73.353-205.685-134.489-208.156-135.856-3.282-1.816-4.488 53.212-4.488 204.843v207.328h848.718v-207.115zM703.401 381.865c102.872-67.152 189.689-124.356 192.925-127.116 5.038-4.295-51.072-5.021-388.003-5.021-338.896 0-393.081 0.708-388.003 5.075 20.52 17.681 387.71 253.749 391.478 251.673 2.519-1.386 88.744-57.461 191.616-124.615z"></path>
	</symbol>
	<symbol id="icon-autoguru-share" viewBox="0 0 1024 1024">
		<title>share</title>
		<path class="path1" d="M5.881 786.206c0-41.793 26.149-86.427 56.087-95.74 12.134-3.774 16.292-3.544 29.2 1.621 8.279 3.312 19.61 11.461 25.183 18.108l10.13 12.086 5.543-11.435c9.829-20.278 27.754-40.461 42.639-48.010 27.571-13.982 60.892-6.664 81.478 17.895l10.309 12.3 15.538-17.144c18.048-19.913 32.964-27.44 54.379-27.44 19.909 0 37.151 7.749 53.162 23.897l12.901 13.009 5.553-8.787c39.525-62.548 101.014-72.191 144.59-22.671 15.168 17.238 17.475 18.214 23.894 10.112 8.414-10.621 29.356-19.074 47.254-19.074 22.586 0 42.632 10.149 59.355 30.051l12.941 15.401 9.744-10.745c24.186-26.673 60.429-31.8 88.282-12.49 10.289 7.132 32.867 36.465 39.010 50.675 0.199 0.46 7.958-6.833 17.242-16.207 27.458-27.726 54.555-27.609 80.679 0.348 18.825 20.146 28.498 44.183 30.441 75.653l1.575 25.483h-957.087v-16.891zM51.745 669.374c-11.149-9.187-16.165-27.53-11.925-43.614 4.314-16.368 17.313-26.521 33.955-26.521 10.75 0 15.575 2.38 25.138 12.397 10.972 11.494 11.704 13.598 10.060 28.882-3.343 31.073-35.101 47.087-57.227 28.855zM868.53 660.521c-20.886-18.411-19.575-51.634 2.657-67.303 13.454-9.484 20.578-9.983 35.645-2.493 12.042 5.986 21.736 23.030 21.736 38.218 0 32.867-36.686 52.165-60.039 31.579zM188.752 636.622c-17.681-8.526-26.131-21.322-27.774-42.055-2.555-32.281 15.692-55.038 44.151-55.067 44.963-0.045 62.368 67.034 24.19 93.24-11.428 7.844-28.889 9.515-40.57 3.881zM738.992 634.79c-16.989-8.194-26.454-24.826-26.454-46.487 0-30.286 20.882-50.316 49.732-47.705 32.244 2.921 49.834 37.67 35.839 70.81-5.385 12.752-9.857 17.6-21.227 23.005-17.772 8.449-21.081 8.482-37.889 0.376zM312.896 623.887c-30.18-20.806-28.803-71.462 2.486-91.446 40.441-25.831 85.668 25.1 64.261 72.365-11.026 24.341-45.020 34.059-66.746 19.083zM599.751 619.449c-23.057-16.486-29.929-48.653-15.88-74.322 25.51-46.611 89.719-27 89.683 27.392-0.030 43.090-41.921 69.727-73.802 46.929zM462.157 594.846c-17.881-12.748-24.54-24.908-26.113-47.676-1.11-16.077 0.132-23.716 5.722-35.196 3.927-8.064 9.149-14.662 11.605-14.662s11.777-4.073 20.713-9.050c20.494-11.416 33.765-9.407 52.025 7.87 22.208 21.018 25.844 54.751 8.806 81.724-15.589 24.678-50.531 32.84-72.755 16.993zM130.121 561.492c0.058-1.476 3.824-9.010 8.371-16.742s8.274-15.12 8.283-16.416c0.011-1.296-4.89-3.466-10.887-4.822-29.157-6.593-60.722-32.768-66.468-55.117-12.255-47.674 46.965-91.421 114.277-84.416 19.907 2.071 23.312 6.004 12.743 14.713-17.761 14.635-24.675 46.205-14.593 66.628 6.595 13.359 25.664 30.378 40.211 35.889 6.581 2.493 11.965 5.625 11.965 6.96 0 3.584-24.671 13.288-40.538 15.946-9.981 1.672-17.192 6.050-26.054 15.818-11.367 12.529-37.55 27.659-37.313 21.559zM930.207 553.984c-5.536-3.614-14.5-11.516-19.92-17.561-5.439-6.065-13.275-10.99-17.489-10.99-9.308 0-44.792-13.563-44.792-17.12 0-1.406 5.384-4.596 11.965-7.089 14.548-5.511 33.617-22.53 40.211-35.889 10.083-20.425 3.169-51.993-14.593-66.628-12.569-10.357-5.87-14.159 25.079-14.23 30.385-0.070 40.716 1.966 59.802 11.783 32.31 16.619 49.050 45.279 42.14 72.151-5.745 22.349-37.309 48.525-66.468 55.117-5.998 1.356-10.904 3.387-10.904 4.513s3.838 8.909 8.529 17.295c7.649 13.673 7.909 15.245 2.516 15.233-3.307-0.005-10.542-2.97-16.078-6.584zM289.38 531.9c-3.691-2.125-11.995-8.986-18.453-15.245-7.079-6.861-18.252-13.028-28.13-15.529-21.943-5.555-40.181-15.66-48.671-26.964-31.342-41.741 2.097-88.453 65.944-92.127 32.441-1.865 52.427 2.985 71.291 17.301 23.127 17.551 30.365 46.494 16.957 67.802-8.302 13.193-31.371 29.39-45.938 32.251-15.175 2.982-16.507 6.396-8.231 21.090 9.638 17.112 8.761 19.212-4.766 11.422zM780.9 534.422c0-0.856 3.139-7.13 6.977-13.944 7.421-13.176 6.38-19.648-3.161-19.648-3.219 0-13.756-4.125-23.414-9.167-52.46-27.386-42.208-89.184 17.713-106.76 22.010-6.456 67.1-3.217 84.086 6.040 27.663 15.077 41.032 38.794 34.925 61.964-6.419 24.355-25.122 39.692-58.802 48.22-9.927 2.513-21.018 8.652-28.13 15.57-14.158 13.771-30.198 23.186-30.198 17.726zM418.534 498.133c0-1.906 2.408-5.558 5.35-8.117 7.203-6.262 24.777-38.728 24.815-45.846 0.020-3.95-4.123-6.398-13.495-7.968-40.468-6.779-85.377-37.184-102.179-69.183-8.266-15.741-10.005-23.073-9.941-41.924 0.095-28.315 7.648-44.627 31.475-67.976 53.14-52.072 153.777-62.957 226.307-24.479 20.84 11.055 47.611 37.203 56.787 55.464 11.163 22.216 10.032 54.566-2.757 78.896-17.963 34.172-56.080 59.095-107.317 70.169-25.698 5.554-27.609 6.654-44.83 25.824-17.34 19.298-35.584 31.328-54.983 36.259-5.34 1.357-9.227 0.885-9.227-1.121zM630.429 491.663c-9.665-5.046-22.293-15.326-28.063-22.845-5.935-7.736-13.427-13.673-17.256-13.673-9.456 0-45.792-10.966-45.792-13.819 0-1.292 8.85-4.263 19.666-6.603 39.204-8.483 79.765-36.194 96.336-65.818 9.932-17.755 14.098-48.495 8.75-64.568-4.284-12.875-1.891-13.517 15.459-4.152 26.104 14.091 47.439 45.031 47.604 69.036 0.103 15.041-14.981 45.054-27.769 55.254-15.187 12.112-37.006 23.26-51.788 26.463-16.493 3.571-17.707 12.301-4.388 31.563 15.252 22.057 13.858 23.057-12.759 9.163z"></path>
	</symbol>
</defs>
</svg>
