<svg style="position: absolute; width: 0; height: 0;" width="0" height="0" version="1.1" xmlns="http://www.w3.org/2000/svg" xmlns:xlink="http://www.w3.org/1999/xlink">
<defs>
<symbol id="icon-autoguru-flat-tire-chopped" viewBox="0 0 1110 1024">
	<title>flat-tire-chopped</title>
	<path class="path1" d="M232.579 998.585c-142.758-106.743-222.354-263.97-222.931-440.443-0.566-171.287 68.176-318.506 200.709-429.814 144.633-121.474 341.715-157.617 526.065-96.483 183.979 61.006 316.038 207.356 363.695 403.046 14.097 57.887 14.259 182.154 0.311 238.96-32.589 132.73-103.002 241.738-208.669 323.046l-35.223 27.104-590.041-0.049-33.928-25.368zM675.495 974.016c139.037-35.046 252.713-145.314 301.416-292.371 13.934-42.076 16.38-60.261 16.594-123.373 0.288-84.767-9.381-129.468-42.727-197.541-54.235-110.765-160.484-195.789-286.375-229.164-58.973-15.634-156.092-14.129-218.712 3.395-138.553 38.764-248.81 143.054-297.513 281.41-16.019 45.51-17.361 56.308-17.228 138.795 0.129 81.925 1.593 93.591 17.418 138.736 77.089 219.931 298.692 337.678 527.15 280.092zM474.193 928.615c-66.508-15.15-127.938-49.843-180.412-101.907-74.36-73.728-108.588-148.394-114.639-249.905-6.81-114.303 29.358-208.63 111.387-290.53 77.73-77.612 163.060-113.637 268.747-113.454 180.589 0.313 328.44 115.029 373.545 289.839 14.343 55.587 10.323 161.101-8.147 213.846-39.974 114.15-123.724 198.143-240.287 240.983-52.661 19.354-151.073 24.555-210.189 11.107zM644.34 847.504c17.812-4.883 32.386-11.145 32.386-13.914s-20.125-35.133-44.723-71.917l-44.723-66.883-54.077-0.782-45.444 69.706c-24.994 38.339-45.444 70.742-45.444 72.006 0 4.8 47.559 17.707 80.148 21.751 40.784 5.061 78.248 1.999 121.878-9.963zM415.078 720.232l37.318-75.603-15.333-23.096-15.338-23.145-49.858-0.049c-27.422-0.030-64.82-1.85-83.109-4.046l-33.253-3.993 4.281 24.094c7.454 41.95 44.575 111.924 78.283 147.565 17.598 18.608 33.727 33.832 35.842 33.832s20.64-34.005 41.165-75.564zM794.895 750.832c30.859-38.809 58.691-96.355 64.495-133.352l4.266-27.188-33.329 4.002c-18.331 2.201-56.174 4.026-84.096 4.055l-50.766 0.054-25.098 49.195 37.221 74.251c42.759 85.3 42.575 85.236 87.304 28.984zM606.381 602.093c45.926-45.926 15.774-114.737-50.277-114.737-30.078 0-64.46 32.737-64.46 61.376 0 42.48 29.931 74.335 69.844 74.335 18.977 0 28.253-4.333 44.893-20.973zM386.608 512.030c34.094 0 35.403-0.638 51.373-25.030l16.387-25.030-36.929-73.669c-20.311-40.518-39.55-73.669-42.753-73.669-8.278 0-47.606 41.4-69.696 73.368-19.081 27.615-47.394 99.133-47.63 120.309-0.12 10.823 3.409 11.401 47.066 7.711 25.963-2.221 62.945-3.997 82.186-3.997zM859.37 491.982c-2.183-14.419-13.648-46.050-25.479-70.288-21.59-44.237-71.754-107.059-85.483-107.059-4.039 0-23.566 32.807-43.393 72.904l-36.048 72.904 32.249 51.086 50.973 2.080c28.035 1.144 64.514 2.645 81.061 3.335l30.103 1.234-3.997-26.219zM632.487 344.6c27.253-41.23 42.995-70.668 39.604-74.059-3.095-3.095-27.613-10.142-54.487-15.66-40.565-8.33-56.954-8.864-96.572-3.146-26.243 3.788-54.511 10.467-62.817 14.843l-15.047 7.955 91.487 138.79 52.651-0.302 45.232-68.428z"></path>
</symbol>
<symbol id="icon-autoguru-flat-tire-square" viewBox="0 0 1024 1024">
	<title>flat-tire-square</title>
	<path class="path1" d="M211.918 920.917c-131.655-98.441-205.059-243.439-205.592-406.187-0.521-157.965 62.874-293.733 185.098-396.384 133.384-112.026 315.16-145.358 485.148-88.979 169.711 56.261 291.499 191.229 335.417 371.698 13 53.385 13.15 167.986 0.287 220.374-30.055 122.407-94.991 222.936-192.439 297.92l-32.483 24.996-544.149-0.046-31.289-23.395zM620.385 898.259c128.223-32.32 233.058-134.012 277.973-269.631 12.851-38.803 15.106-55.574 15.303-113.778 0.265-78.174-8.652-119.398-39.404-182.176-50.062-102.15-148.048-180.561-264.146-211.34-54.34-14.418-143.906-13.030-201.678 3.131-127.777 35.749-229.458 131.928-274.373 259.523-14.773 41.97-16.009 51.928-15.89 128 0.119 75.553 1.469 86.312 16.063 127.945 71.093 202.825 275.461 311.414 486.15 258.307zM434.718 856.389c-61.335-13.972-117.988-45.966-166.38-93.98-68.572-67.994-100.143-136.852-105.722-230.468-6.276-105.413 27.075-192.403 102.723-267.933 71.685-71.575 150.378-104.798 247.822-104.63 166.543 0.288 302.895 106.082 344.492 267.296 13.228 51.264 9.52 148.571-7.513 197.213-36.865 105.272-114.101 182.732-221.598 222.24-48.565 17.849-139.323 22.645-193.841 10.243zM591.631 781.587c16.427-4.504 29.867-10.278 29.867-12.832s-18.56-32.4-41.244-66.323l-41.244-61.681-49.871-0.721-41.909 64.284c-23.050 35.357-41.909 65.24-41.909 66.405 0 4.427 43.86 16.33 73.915 20.059 37.612 4.668 72.162 1.843 112.399-9.188zM380.213 664.205l34.417-69.687-28.284-42.667-45.98-0.050c-25.289-0.027-59.779-1.706-76.645-3.732l-30.666-3.682 3.948 22.22c6.874 38.688 41.108 103.219 72.194 136.087 16.229 17.16 31.104 31.201 33.055 31.201s19.035-31.36 37.964-69.687zM730.49 692.425c28.459-35.79 54.126-88.86 59.478-122.98l3.934-25.073-30.737 3.69c-16.906 2.030-51.805 3.713-77.555 3.74l-46.817 0.050-23.146 45.369 34.326 68.476c39.433 78.666 39.263 78.607 80.514 26.73zM556.637 555.254c42.354-42.354 14.547-105.813-46.367-105.813-27.739 0-59.447 30.191-59.447 56.602 0 39.176 27.603 68.553 64.412 68.553 17.501 0 26.055-3.996 41.401-19.342zM353.981 472.196c31.442 0 32.65-0.588 47.377-23.083l15.112-23.083-34.057-67.939c-18.728-37.365-36.473-67.939-39.426-67.939-7.634 0-43.904 38.18-64.275 67.661-17.597 25.468-43.708 91.423-43.925 110.952-0.111 9.981 3.144 10.514 43.405 7.111 23.939-2.048 58.045-3.686 75.79-3.686zM789.973 453.705c-2.002-13.294-12.607-42.466-23.484-64.821-19.934-40.796-66.173-98.732-78.871-98.732-3.725 0-21.733 30.256-40.018 67.234l-33.245 67.234 29.741 47.112 47.008 1.918c25.854 1.055 59.497 2.439 74.757 3.076l27.716 1.138-3.641-24.18zM580.758 317.786c25.134-38.024 39.651-65.172 36.524-68.299-2.854-2.854-25.465-9.353-50.249-14.442-37.41-7.682-52.524-8.174-89.061-2.902-24.202 3.493-50.272 9.653-57.931 13.688l-13.926 7.337 84.371 127.995 48.556-0.279 41.714-63.106z"></path>
</symbol>
</defs>
</svg>
