<svg style="position: absolute; width: 0; height: 0;" width="0" height="0" version="1.1" xmlns="http://www.w3.org/2000/svg" xmlns:xlink="http://www.w3.org/1999/xlink">
<defs>
<symbol id="icon-autoguru-flat_tire" viewBox="0 0 724 1024">
	<title>flat_tire</title>
	<path fill="rgb(231, 231, 231)" class="path1 fill-color10" d="M159.333 839.154c-35.055-25.007-76.053-69.793-98.096-107.164-37.099-62.911-56.909-150.682-48.275-213.978 9.493-69.632 29.296-121.282 66.571-173.736 25.45-35.82 71.687-77.789 109.88-99.717 52.692-30.276 115.861-47.253 175.772-47.253 55.683 0 103.891 10.981 154.279 35.145 51.271 24.593 93.784 59.16 129.567 105.359 11.87 15.321 36.573 54.663 36.573 58.243 0 0.842 2.589 7.226 5.744 14.197 12.077 26.629 21.648 60.022 26.534 92.553 3.143 20.923 3.792 77.079 1.067 91.659-0.968 5.147-2.804 15.493-4.086 23.008-4.965 28.939-14.29 56.969-29.213 87.726-26.598 54.861-60.993 95.715-114.76 136.38l-14.298 10.812-378.87-0.090-18.383-13.109zM407.25 818.937c39.684-6.261 89.747-26.704 119.45-48.753 18.842-13.991 48.618-44.54 61.082-62.669 32.794-47.716 48.015-97.288 47.983-156.361-0.011-41.186-4.732-66.113-19.569-103.328-13.054-32.748-33.992-63.218-61.926-90.104-37.381-35.985-78.744-58.19-129.922-69.728-29.855-6.728-80.642-7.282-111.122-1.204-94.774 18.882-172.417 87.418-202.343 178.607-10.072 30.677-14.081 55.459-14.038 86.601 0.082 57.852 16.962 110.994 50.185 158.033 13.057 18.474 47.606 51.944 66.772 64.66 35.139 23.319 71.883 37.649 114.050 44.485 14.976 2.425 63.557 2.3 79.414-0.205zM335.629 797.893c-106.217-14.287-189.988-93.065-212.655-199.966-4.649-21.958-4.632-70.31 0.048-92.607 15.231-72.574 58.756-133.134 121.331-168.79 30.536-17.399 57.854-26.259 96.141-31.193 24.119-3.107 51.652-1.67 77.98 4.049 97.122 21.142 173.303 99.453 191.767 197.13 8.135 43.061 5.621 78.522-8.715 122.753-11.31 34.879-29.704 65.212-56.743 93.531-20.448 21.405-44.449 38.928-70.748 51.639-24.201 11.692-29.987 13.616-63.892 21.306-12.251 2.772-59.715 4.157-74.531 2.161zM398.151 737.191c13.705-2.472 29.959-7.021 33.812-9.451 2.167-1.367-1.926-8.86-19.437-35.555-33.563-51.171-28.887-46.494-46.414-46.445l-14.882 0.044-25.348 38.197c-13.945 21.010-25.68 39.081-26.072 40.151-3.659 9.858 65.345 19.015 98.341 13.059zM270.576 653.463l21.439-41.868-6.461-12.168c-4.593-8.645-7.581-12.176-10.35-12.213-2.138-0.032-13.991-0.857-26.324-1.862s-32.506-2.010-44.839-2.264l-22.42-0.463 0.591 5.707c1.968 19.191 18.37 55.814 34.841 77.847 12.333 16.495 26.892 30.887 30.153 29.811 1.067-0.35 11.583-19.488 23.388-42.528zM501.727 682.262c25.182-25.981 43.888-61.509 48.462-92.1l1.33-8.903-7.537 0.966c-4.156 0.521-22.458 1.501-40.678 2.177-49.776 1.833-48.778 1.566-56.098 15.228l-6.123 11.431 19.226 38.289c20.17 40.187 24.027 47.058 26.318 47.058 0.767 0 7.566-6.368 15.1-14.13zM377.435 588.241c12.22-4.307 18.704-9.733 23.277-19.485 9.655-20.542 1.415-43.124-18.937-51.947-11.185-4.851-21.014-4.63-31.48 0.723-13.192 6.734-20.088 16.711-21.093 30.458-1.436 19.778 9.113 35.804 26.894 40.845 9.621 2.73 12.088 2.671 21.323-0.594zM255.425 518.832c10.561-0.987 20.214-1.817 21.443-1.823s5.272-5.741 8.983-12.73l6.759-12.719-21.347-42.831c-11.739-23.56-22.073-42.831-22.963-42.831-2.637 0-22.083 19.148-30.415 29.948-15.27 19.79-32.119 57.511-36.102 80.778l-1.1 6.422 27.745-1.2c15.266-0.67 36.403-2.010 46.964-3.013zM552.301 519.467c-0.546-1.875-2.458-9.56-4.249-17.059-3.999-16.75-15.133-41.142-26.332-57.754-8.711-12.894-33.096-38.758-36.548-38.758-1.076 0-11.605 19.361-23.363 43.040l-21.398 43.040 6.595 10.945c3.623 6.030 6.595 11.564 6.595 12.298 0 1.621 21.494 3.866 54.585 5.691 44.252 2.433 45.226 2.413 44.116-1.444zM405.849 419.206c13.919-21.56 25.595-40.315 25.912-41.68 0.605-2.542-10.432-6.332-30.421-10.452-17.785-3.662-58.996-2.677-78.4 1.878-9.396 2.208-18.406 5.059-20.005 6.337-2.509 1.993 0.884 8.166 23.387 42.632l26.321 40.316 27.906 0.139 25.315-39.186z"></path>
	<path fill="rgb(208, 208, 208)" class="path2 fill-color9" d="M164.065 840.515c-41.642-29.737-78.446-69.925-103.277-112.733-32.066-55.298-49.862-125.698-47.296-186.988 3.775-89.716 39.682-172.751 101.83-235.451 38.75-39.093 72.224-61.719 118.931-80.39 45.017-17.995 84.858-25.728 132.579-25.728 143.222 0 272.843 87.171 326.134 219.331 18.466 45.808 25.785 83.879 25.775 134.029-0.012 57.346-10.562 102.547-36.080 154.545-25.314 51.603-59.169 92.181-107.914 129.354l-18.253 13.917-378.762-0.158-13.65-9.744zM409.584 820.208c108.599-17.791 194.054-96.348 220.402-202.605 18.759-75.626 4.972-154.808-38.080-218.698-12.467-18.504-44.624-52.078-62.232-64.992-42.658-31.264-91.79-49.266-143.564-52.62-22.849-1.482-54.672-0.308-67.044 2.457-21.050 4.712-34.021 8.223-45.774 12.451-153.819 55.089-223.532 236.421-147.089 382.593 37.435 71.587 108.427 124.176 187.982 139.274 8.584 1.623 17.353 3.327 19.491 3.787 9.69 2.052 59.967 0.974 75.891-1.647zM338.557 796.53c-108.82-14.251-192.898-93.535-214.724-202.491-3.671-18.367-3.106-71.070 0.976-89.678 13.234-60.412 45.906-112.631 92.36-147.599 59.761-44.974 130.849-60.947 201.888-45.314 47.271 10.389 88.359 33.363 122.351 68.433 42.444 43.766 64.33 90.898 70.41 151.555 5.35 53.334-10.261 111.881-42.533 159.547-13.302 19.642-38.967 45.894-58.491 59.813-29.17 20.8-59.117 33.985-96.225 42.365-12.622 2.849-63.038 5.104-76.028 3.402zM401.927 738.291c23.69-4.987 34.503-9.014 33.601-12.472-0.438-1.703-12.581-20.849-26.959-42.547l-26.149-39.445-31.553-0.050-26.627 39.949c-14.64 21.981-26.845 40.961-27.126 42.193-0.595 2.692 16.208 8.879 33.615 12.346 17.612 3.523 54.574 3.537 71.166 0.043zM271.975 654.488l22.12-43.815-5.668-9.285c-3.115-5.108-6.211-10.725-6.859-12.493-0.927-2.472-5.062-3.491-18.388-4.52-32.116-2.497-81.54-4.35-82.956-3.141-2.177 1.87 4.891 28.556 12.12 45.758 3.566 8.467 10.922 22.071 16.34 30.213 11.018 16.549 33.954 41.146 38.338 41.126 1.749-0.008 11.368-16.898 24.97-43.844zM500.49 686.167c16.512-16.848 27.703-32.976 37.736-54.397 8.084-17.264 14.798-38.967 14.798-47.866 0-3.858-0.82-4.003-17.059-3.225-55.462 2.685-81.551 4.898-83.557 7.095-1.197 1.311-4.687 7.094-7.752 12.848l-5.575 10.471 22.194 43.634c12.205 23.994 23.343 43.634 24.747 43.634s7.922-5.485 14.5-12.178zM389.52 584.207c26.419-18.668 20.753-59.246-9.786-70.015-11.986-4.221-19.401-3.754-30.835 1.927-29.393 14.642-29.217 57.634 0.297 71.43 12.004 5.617 29.699 4.138 40.323-3.357zM221.579 522.908c57.439-3.113 57.688-3.157 62.065-11.449 2.053-3.906 5.393-9.917 7.397-13.369l3.653-6.288-21.92-43.912c-12.592-25.223-23.062-43.912-24.595-43.912-3.288 0-29.485 27.18-37.641 39.052-13.024 18.98-27.403 53.759-30.808 74.518-1.409 8.6-6.173 7.994 41.864 5.392zM554.977 523.976c0-0.469-1.282-6.388-2.855-13.154-6.518-28.088-17.36-51.598-33.999-73.749-10.901-14.51-29.908-33.148-33.693-33.055-1.404 0.039-12.335 19.988-24.29 44.328-21.619 44.034-21.725 44.286-18.29 49.166 1.903 2.689 5.278 8.515 7.523 12.941l4.077 8.045 17.142 1.495c35.695 3.116 84.4 5.409 84.4 3.965zM407.837 419.111c14.581-22.535 26.069-42.101 25.53-43.477-0.983-2.563-13.537-6.68-32.028-10.495-15.003-3.095-56.145-2.637-72.88 0.802-13.873 2.848-30.836 8.289-30.836 9.881 0 0.433 6.719 11.108 14.928 23.727s20.344 31.276 26.976 41.504l12.048 18.577 29.746 0.459 26.5-40.963z"></path>
	<path fill="rgb(176, 176, 175)" class="path3 fill-color8" d="M166.276 840.466c-37.56-25.382-82.311-73.963-104.902-113.88-38.75-68.482-54.711-153.43-42.5-226.129 13.236-78.812 44.275-140.67 97.409-194.187 26.534-26.718 46.493-42.665 73.087-58.37 34.147-20.165 84.004-37.68 124.334-43.657 26.882-3.994 80.233-4.003 104.769-0.033 95.376 15.474 174.226 62.964 231.237 139.315 33.221 44.488 57.266 103.322 65.347 159.86 3.438 24.029 2.893 78.747-1.015 102.352-15.151 91.637-61.16 168.443-135.687 226.522-6.972 5.437-15.742 11.738-19.491 14.003l-6.817 4.129-371.037 0.010-14.724-9.951zM412.649 821.2c50.628-10.247 89.889-27.981 125.665-56.752 52.065-41.89 89.125-107.358 98.686-174.312 2.925-20.454 2.461-65.89-0.85-83.837-10.665-57.817-32.669-101.675-71.158-141.777-24.289-25.307-46.483-41.821-75.338-56.099-40.483-20.004-67.937-26.964-113.074-28.622-37.308-1.366-63.011 1.968-94.559 12.297-101.909 33.354-171.084 117.455-186.363 226.564-6.124 43.72 0.432 92.392 18.558 137.747 31.221 78.11 105.629 141.479 189.249 161.138 31.385 7.372 82.272 9.067 109.185 3.623zM323.931 792.659c-73.072-13.182-135.173-57.797-172.162-123.689-9.154-16.303-17.318-37.511-23.227-60.319-4.767-18.417-5.31-23.9-5.359-54.585-0.082-47.171 5.008-70.321 24.169-110.162 33.725-70.055 98.347-118.501 178.531-133.827 20.005-3.827 66.5-3.322 86.171 0.933 50.67 10.972 92.894 33.303 125.834 66.565 51.689 52.185 76.476 115.46 72.918 186.236-2.937 58.586-25.382 111.53-65.465 154.456-37.718 40.376-85.335 65.84-141.349 75.546-16.335 2.839-61.564 2.175-80.061-1.154zM408.744 738.33c16.238-3.918 29.253-8.842 29.253-11.056 0-2.511-52.278-81.118-55.124-82.874-1.317-0.813-9.221-1.604-17.558-1.738l-15.153-0.252-26.555 40.153c-14.602 22.081-26.939 41.594-27.425 43.347-1.032 3.875 17.011 10.409 40.077 14.495 18.381 3.264 54.715 2.217 72.485-2.076zM272.958 655.34l23.103-44.924-4.938-7.22c-2.719-3.963-6.032-9.65-7.357-12.626s-4.245-5.79-6.467-6.26c-5.283-1.113-72.913-4.904-87.405-4.9-10.932 0.004-11.218 0.135-11.218 5.368 0 17.404 18.004 58.654 36.4 83.337 11.528 15.484 28.459 32.189 32.614 32.157 1.19-0.005 12.556-20.237 25.268-44.932zM504.541 683.072c8.971-9.478 20.588-24.376 25.82-33.126 9.648-16.115 21.391-46.91 23.834-62.501l1.351-8.548-34.891 1.442c-19.19 0.798-42.253 2.003-51.26 2.691l-16.369 1.265-7.605 12.51c-4.176 6.885-7.329 13.454-7.016 14.626 2.376 8.544 44.967 88.866 47.129 88.866 1.485 0 10.035-7.747 19.006-17.225zM385.477 587.702c14.58-7.393 21.99-19.39 21.832-35.338-0.223-24.367-16.767-41.186-40.491-41.186-37.475 0-55.394 43.103-28.935 69.601 13.388 13.4 30.030 15.822 47.594 6.923zM243.022 522.734c23.023-1.363 36.619-2.965 37.573-4.412 0.839-1.242 4.642-7.53 8.472-13.96l6.969-11.698-22.598-45.335c-12.428-24.93-23.683-45.335-24.981-45.335s-9.116 6.856-17.36 15.238c-15.877 16.163-30.12 36.462-37.891 54.022-9.094 20.549-17.526 51.841-14.748 54.655 0.651 0.672 7.347 0.71 14.846 0.082s29.872-2.091 49.72-3.273zM554.977 521.38c0-15.959-15.816-55.716-31.299-78.661-9.52-14.113-35.131-40.71-39.188-40.71-1.567 0-12.073 18.808-25.052 44.848-20.854 41.851-22.169 45.143-19.564 49.224 1.536 2.412 5.32 8.978 8.412 14.602 5.493 10.035 5.787 10.244 14.72 10.386 5.015 0.085 24.898 1.277 44.204 2.645 52.239 3.709 47.768 3.943 47.768-2.351zM395.391 440.473c7.138-10.973 19.192-29.51 26.804-41.178s13.833-22.294 13.833-23.603c0-2.585-21.394-9.348-39.846-12.593-16.808-2.97-47.726-2.503-65.038 0.979-21.738 4.373-33.554 8.539-33.554 11.826 0 1.565 11.991 21.228 26.636 43.717l26.636 40.876 31.526-0.075 12.971-19.95z"></path>
	<path fill="rgb(144, 143, 143)" class="path4 fill-color7" d="M167.8 840.312c-89.166-63.052-141.438-154.613-150.971-264.428-8.723-100.473 35.526-210.872 113.119-282.236 68.053-62.574 158.331-95.796 249.561-91.83 88.297 3.838 167.442 37.659 230.419 98.445 65.9 63.629 103.015 146.5 106.342 237.526 2.213 60.486-8.381 111.288-34.619 165.983-18.205 37.948-46.359 77.025-73.258 101.669-13.866 12.709-44.927 37.603-50.839 40.75-3.15 1.67-52.881 2.262-191.241 2.262h-186.985l-11.528-8.158zM406.792 822.923c113.998-15.654 204.833-102.803 229.457-220.101 4.369-20.789 4.862-77.841 0.883-98.464-10.723-55.381-33.43-100.946-69.128-138.758-67.423-71.41-161.358-101.547-256.804-82.427-55.211 11.065-101.871 37.021-142.341 79.204-36.537 38.067-58.332 79.463-71.175 135.148-4.436 19.268-6.039 69.506-2.903 91.584 18.386 129.737 125.016 228.552 254.471 235.837 25.238 1.415 34.84 1.075 57.556-2.039zM332.462 792.825c-23.272-3.622-38.847-7.872-58.195-15.867-78.573-32.464-130.756-98.139-148.424-186.822-3.84-19.303-2.775-63.072 2.117-86.766 20.63-99.888 99.289-175.141 200.824-192.133 36.965-6.176 82.566-1.95 119.952 11.142 80.895 28.32 141.523 100.52 158.079 188.264 4.42 23.403 2.857 74.574-2.94 96.724-15.362 58.617-46.584 105.844-92.679 140.201-49.82 37.136-118.772 54.588-178.732 45.257zM404.443 740.081c18.122-3.74 34.025-9.048 34.884-11.626 0.345-1.051-11.872-20.751-27.152-43.78l-27.787-41.892-35.379-1.11-27.737 42.283c-15.262 23.26-27.356 43.268-26.89 44.488 0.983 2.563 18.674 8.551 35.421 11.984 17.238 3.529 56.818 3.358 74.655-0.33zM273.545 656.478l23.102-45.772-3.352-5.405c-1.836-2.975-5.285-9.104-7.664-13.621-5.030-9.578-4.892-9.54-46.498-11.236-14.471-0.591-34.443-1.606-44.359-2.25-20.895-1.363-20.417-1.995-15.023 19.479 5.189 20.672 14.936 42.535 27.086 60.713 11.942 17.875 36.205 43.863 40.97 43.863 1.484 0 12.752-20.036 25.737-45.772zM500.499 689.321c22.579-21.788 39.786-49.729 49.121-79.678 6.164-19.792 7.917-29.607 5.57-31.058-1.020-0.633-23.643-0.158-50.269 1.066-48.123 2.204-57.178 3.773-57.178 9.878 0 1.226-2.645 6.346-5.882 11.4l-5.882 9.182 16.345 31.939c8.987 17.566 19.557 38.291 23.468 46.070s8.069 14.13 9.227 14.13c1.158 0 8.135-5.821 15.497-12.929zM379.181 592.206c12.032-4.248 19.317-10.546 24.706-21.347 14.513-29.135-5.949-61.632-38.803-61.632-8.886 0-17.769 3.623-26.117 10.674-24.921 21.012-16.765 61.093 14.709 72.324 9.564 3.408 15.783 3.404 25.52-0.035zM232.3 524.785c22.512-1.141 42.72-2.433 44.912-2.892 2.263-0.471 5.776-4.394 8.178-9.183 2.328-4.595 6.033-11.090 8.244-14.419l4.028-6.070-22.927-45.482c-12.603-25.016-23.99-45.817-25.28-46.231-3.44-1.072-31.681 27.682-41.431 42.192-14.041 20.889-27.089 52.612-30.329 73.763-1.608 10.456-0.174 12.623 7.493 11.387 3.402-0.55 24.6-1.923 47.129-3.064zM554.773 526.947c3.561-2.252 0.307-19.707-7.585-40.91-7.222-19.347-10.385-25.515-22.166-43.093-10.115-15.095-36.571-42.887-40.807-42.887-1.321 0-12.806 20.854-25.52 46.359l-23.107 46.359 5.235 7.71c2.885 4.248 6.563 10.52 8.205 13.96 1.946 4.085 4.764 6.595 8.163 7.261 2.855 0.553 24.499 2.032 48.080 3.274s43.259 2.6 43.698 3.016c1.238 1.141 2.816 0.852 5.82-1.051zM396.073 440.991c27.406-41.1 41.908-63.895 41.908-65.888 0-2.298-18.517-8.666-36.070-12.382-17.823-3.785-57.431-3.237-76.028 1.052-19.811 4.558-30.213 8.708-30.213 12.004 0 1.436 7.738 14.282 17.189 28.545s21.852 33.22 27.528 42.109l10.338 16.161 31.695-1.118 13.653-20.467z"></path>
	<path fill="rgb(128, 128, 126)" class="path5 fill-color5" d="M164.881 836.916c-95.593-67.257-151.6-179.467-147.475-295.509 1.285-36.289 6.587-65.457 18.195-100.182 42.381-126.883 148.919-215.801 281.865-235.31 30.787-4.512 87.85-3.070 116.502 2.938 85.546 17.957 154.755 60.744 208.861 129.105 52.28 66.061 78.788 154.082 72.030 239.194-6.967 87.744-44.075 166.653-106.521 226.47-15.619 14.97-41.822 36.19-52.276 42.326-3.074 1.818-47.6 2.383-189.39 2.432l-185.373 0.075-16.419-11.559zM398.999 825.074c47.382-5.456 95.804-24.976 134.033-54.018 19.024-14.459 48.798-46.113 61.943-65.879 30.888-46.419 46.031-96.867 46.24-154.039 0.138-39.741-6.554-73.072-21.81-108.433-28.852-66.946-81.929-118.461-150.637-146.238-34.722-14.038-62.199-19.152-103.152-19.221-133.306-0.201-244.251 92.737-269.953 226.124-4.296 22.287-4.837 71.852-0.991 92.607 10.942 59.304 35.574 107.226 76.474 148.724 44.194 44.871 101.721 72.863 166.45 80.986 12.299 1.539 45.528 1.201 61.418-0.629zM324.593 790.823c-81.924-14.816-149.573-69.375-182.408-147.063-36.587-86.597-16.799-191.305 48.959-259.021 33.445-34.451 69.752-56.019 113.608-67.51 110.126-28.854 225.289 22.277 277.027 122.987 19.875 38.707 26.514 66.372 26.624 110.936 0.080 34.575-2.685 51.884-12.929 80.909-16.749 47.473-50.098 91.536-89.804 118.648-17.876 12.209-53.846 29.525-70.987 34.19-33.7 9.152-78.825 11.58-110.085 5.923zM412.516 739.398c18.114-4.714 27.434-8.817 27.434-12.113 0-1.184-12.629-21.229-28.064-44.549l-28.064-42.411-34.542 0.507-28.585 42.701c-15.728 23.482-28.163 43.783-27.651 45.129 1.156 3.022 22.451 9.967 41.722 13.621 20.636 3.912 56.784 2.564 77.749-2.885zM274.67 656.053l23.141-45.22-8.341-13.99c-4.591-7.695-9.236-14.3-10.336-14.687s-23.831-1.824-50.536-3.186c-33.778-1.731-49.388-1.863-51.331-0.437-6.296 4.6 12.041 56.36 28.587 80.687 12.546 18.432 36.935 43.353 41.763 42.653 2.941-0.432 9.61-11.71 27.051-45.805zM498.578 692.984c23.148-20.79 45.98-59.040 54.314-91.028 4.64-17.823 5.021-23.74 1.587-24.887-2.429-0.811-44.702 1.143-83.199 3.838l-20.325 1.435-5.106 9.746c-2.808 5.361-6.344 11.668-7.867 14.034-2.557 3.966-1.067 7.612 20.55 50.165 16.072 31.637 24.3 45.899 26.509 45.928 1.754 0.011 7.837-4.133 13.521-9.23zM381.995 592.383c33.38-13.989 37.099-59.608 6.341-77.593-8.773-5.137-11.276-5.669-23.644-5.143-11.149 0.477-15.365 1.62-21.824 5.901-15.102 9.995-23.484 32.531-18.13 48.743 3.156 9.574 15.133 22.833 24.425 27.053 9.36 4.253 24.068 4.721 32.832 1.054zM230.711 525.754c25.535-1.647 47.34-3.284 48.439-3.664 2.052-0.714 18.456-27.142 18.508-29.853 0.011-0.842-10.167-21.915-22.633-46.845-14.419-28.835-23.732-45.335-25.577-45.335-4.084 0-13.133 7.962-27.424 24.156-14.475 16.41-25.915 34.712-33.903 54.27-6.596 16.161-14.076 45.514-12.324 48.361 1.491 2.419-0.002 2.437 54.913-1.074zM556.912 521.885c0-18.491-14.623-55.524-31.909-80.878-9.116-13.368-36.4-40.951-40.498-40.951-2.8 0-8.929 10.593-26.541 45.864l-22.896 45.863 3.75 6.289c2.072 3.452 5.413 9.524 7.452 13.48s4.734 8.050 6.007 9.108c1.964 1.628 66.5 6.898 95.369 7.784l9.265 0.289v-6.848zM383.038 460.978c5.32-4.586 54.959-81.805 54.959-85.503 0-3.962-10.386-8.002-32.841-12.763-26.063-5.526-65.84-4.29-89.673 2.795-8.94 2.648-17.569 6.131-19.175 7.737-2.585 2.585 0.115 7.523 23.651 43.516 14.601 22.333 27.478 41.719 28.593 43.058 1.145 1.371 7.749 2.759 15.025 3.14 7.146 0.377 13.559 0.85 14.243 1.061s3.026-1.152 5.201-3.026z"></path>
	<path fill="rgb(128, 126, 126)" class="path6 fill-color6" d="M174.395 843.095c-24.961-14.546-64.945-52.318-88.955-84.046-30.111-39.766-52.833-93.060-62.879-147.47-20.236-109.506 17.997-229.017 98.505-307.893 42.148-41.3 88.646-68.995 143.992-85.761 38.807-11.753 53.947-13.819 101.791-13.819 37.551 0 45.687 0.584 65.306 4.631 71.901 14.843 132.769 47.356 181.67 97.068 43.859 44.586 71.341 90.819 87.627 147.397 11.024 38.32 12.421 49.399 12.424 98.911 0.002 40.21-0.543 48.376-4.427 66.814-18.378 87.021-63.248 158.365-133.691 212.601-9.485 7.308-19.406 14.093-22.067 15.105-2.885 1.099-78.24 1.826-187.467 1.821l-182.654-0.010-9.178-5.351zM407.286 824.132c113.323-17.089 203.108-101.028 228.346-213.53 13.982-62.266 5.017-128.887-25.133-186.901-14.080-27.095-26.495-43.691-50.538-67.593-67.587-67.165-164.531-94.309-257.579-72.137-50.332 11.997-91.616 35.134-128.668 72.115-32.234 32.168-52.377 63.799-66.917 104.982-11.356 32.17-14.705 52.956-14.638 91.028 0.051 37.905 3.577 59.68 14.803 91.491 27.475 77.854 89.835 140.042 168.146 167.677 18.088 6.382 45.057 12.972 58.585 14.304 19.144 1.904 56.197 1.157 73.593-1.454zM337.581 792.649c-31.575-4.692-54.351-11.779-80.909-25.15-65.881-33.177-111.908-94.007-128.206-169.432-5.054-23.358-4.498-73.971 1.071-97.593 11.152-47.352 30.339-82.948 63.133-117.106 80.57-83.926 210.090-97.976 308.061-33.437 43.207 28.459 78.657 74.644 95.189 123.955 9.904 29.553 12.093 43.399 12.283 77.284 0.135 27.067-0.506 34.028-4.883 52.632-22.24 94.647-92.348 164.167-186.781 185.219-14.195 3.157-66.091 5.56-78.957 3.628zM395.352 743.184c20.418-2.947 44.581-11.22 44.581-15.237 0-1.861-12.504-22.211-27.78-45.25l-27.78-41.866-16.579-0.502c-9.11-0.267-17.516 0.167-18.662 0.976-3.363 2.38-55.975 83.080-56.196 86.218-0.26 3.623 19.744 10.984 39.682 14.597 17.567 3.185 44.887 3.651 62.735 1.065zM275.001 656.101c18.922-37.566 22.791-46.655 20.958-49.186-1.236-1.71-4.627-7.73-7.524-13.353s-6.755-10.709-8.556-11.275c-1.817-0.566-25.096-2.223-51.756-3.67-39.182-2.128-48.962-2.163-51.090-0.162-2.207 2.078-1.995 5.013 1.314 18.072 5.732 22.636 15.069 43.738 27.79 62.738 12.391 18.508 38.883 45.561 43.037 43.947 1.447-0.559 13.067-21.75 25.827-47.095zM503.348 688.102c16.593-16.969 28.106-33.53 38.077-54.84 11.263-24.035 18.627-53.682 14.031-56.446-0.806-0.478-24.209 0.306-52.019 1.774-35.778 1.872-51.223 3.371-52.864 5.149-1.271 1.371-5.276 8.041-8.903 14.808l-6.601 12.301 23.263 45.692c18.852 37.048 24.004 45.692 27.227 45.692 2.35 0 9.581-5.744 17.789-14.13zM384.488 591.329c16.848-7.655 27.833-27.992 25.086-46.409-4.421-29.472-39.481-46.106-64.534-30.62-22.685 14.033-28.751 39.974-14.338 61.422 11.701 17.43 34.954 24.164 53.802 15.607zM234.025 525.812c27.833-1.792 45.674-3.752 47.43-5.225 1.562-1.285 4.935-6.507 7.518-11.583s5.577-9.793 6.674-10.47c4.202-2.594 1.285-10.216-20.449-53.649-16.536-33.042-23.341-44.829-25.865-44.829-9.442 0-41.168 36.79-54.447 63.135-11.32 22.463-22.2 58.587-19.134 63.556 1.576 2.552 5.032 2.502 58.272-0.935zM557.623 525.806c1.757-4.596-7.45-37.951-15.007-54.288-9.699-20.984-24.198-41.101-42.371-58.793-13.44-13.071-16.047-14.852-18.373-12.499-4.198 4.264-45.844 89.039-45.844 93.296 0 2.081 0.894 4.334 1.991 5.012s4.091 5.394 6.674 10.47c2.584 5.092 5.911 10.258 7.405 11.497 1.578 1.315 19.013 3.398 41.59 4.973 54.869 3.828 62.575 3.869 63.934 0.332zM384.166 460.47c1.561-1.605 14.755-21.323 29.338-43.851 30.716-47.441 30.541-43.942 2.63-51.907-14.129-4.038-20.302-4.607-49.301-4.626-26.044-0.002-36.067 0.766-46.791 3.607-17.521 4.634-26.324 8.306-26.324 11.012 0 2.253 54.106 86.055 56.652 87.746 0.809 0.542 8.117 0.971 16.22 0.948 10.498-0.009 15.572-0.856 17.576-2.928z"></path>
	<path fill="rgb(112, 112, 111)" class="path7 fill-color4" d="M162.055 834.336c-35.525-25.264-73.802-67.155-96.436-105.541-19.556-33.167-35.638-77.534-43.186-119.151-6.030-33.169-6.029-82.273 0.001-115.026 16.804-91.372 60.99-164.449 133.48-220.78 41.731-32.424 88.006-53.007 146.59-65.202 18.541-3.861 27.133-4.459 63.37-4.421 45.642 0.044 61.478 2.075 96.891 12.377 59.949 17.45 109.971 47.266 152.967 91.169 49.567 50.625 78.618 106.507 94.609 181.976 2.802 13.219 3.518 25.657 3.518 61.418 0 39.228-0.557 47.521-4.472 66.283-18.719 89.718-63.164 159.848-137.060 216.261l-16.799 12.816h-376.301l-17.14-12.178zM422.395 822.167c61.391-13.604 115.486-45.674 153.606-91.071 61.251-72.947 81.206-166.232 55.208-258.011-19.138-67.55-69.38-129.135-133.612-163.759-93.713-50.523-207.854-43.052-293.557 19.185-5.903 4.288-20.493 17.562-32.417 29.491-39.866 39.899-63.678 84.196-76.017 141.475-4.436 20.625-5.138 82.484-1.107 99.424 6.925 29.136 11.028 42.87 17.824 59.48 35.861 87.799 119.956 152.578 216.501 166.758 17.523 2.583 77.026 0.672 93.583-3.009zM339.533 792.531c-113.589-14.722-199.758-100.736-213.42-213.069-2.771-22.802-2.518-37.983 1.029-62.19 10.896-74.221 55.221-139.299 119.785-175.854 24.887-14.090 48.397-22.462 81.497-29.012 15.77-3.113 61.775-2.517 80.603 1.053 101.072 19.154 176.023 93.633 196.047 194.792 4.171 21.091 4.080 64.865-0.182 87.292-6.001 31.559-20.803 67.424-38.703 93.767-10.669 15.701-37.902 43.813-53.95 55.683-34.675 25.644-71.496 40.744-114.184 46.838-13.111 1.873-46.318 2.26-58.489 0.683zM415.327 739.437c15.855-4.335 26.583-8.94 26.548-11.406-0.006-0.773-12.943-20.714-28.757-44.312l-28.746-42.887-35.351-1.11-28.759 43.163c-15.821 23.735-28.326 44.292-27.783 45.691 1.353 3.518 20.16 10.26 38.022 13.652 21.704 4.12 64.756 2.711 84.827-2.776zM274.059 658.391c12.965-25.191 23.564-46.582 23.564-47.524s-3.054-6.878-6.771-13.174c-3.733-6.296-7.451-12.602-8.289-14.032-1.909-3.265-103.678-9.102-106.656-6.124-3.235 3.235 6.215 36.703 16.238 57.461 5.178 10.719 13.615 25.187 18.765 32.16 10.471 14.169 33.428 37.046 37.17 37.046 1.331 0 13.029-20.621 25.994-45.811zM504.327 687.122c17.781-18.255 32.576-40.030 40.461-59.563 9.955-24.636 14.843-48.187 10.549-50.833-2.2-1.358-100.992 3.948-103.613 5.562-1.16 0.722-4.288 5.574-6.927 10.792s-5.696 10.030-6.794 10.707c-4.176 2.588-1.326 10.137 19.682 52.193 22.805 45.652 24.292 48.237 27.811 48.238 1.202 0 9.686-7.687 18.814-17.064zM387.557 589.819c16.29-8.859 25.689-28.373 22.323-46.326-1.954-10.413-12.68-24.805-22.58-30.294-11.566-6.419-28.554-6.642-40.205-0.546-22.711 11.903-30.798 38.503-18.327 60.266 9.092 15.835 19.308 21.784 37.804 21.988 8.854 0.092 13.58-1.054 20.984-5.072zM240.109 525.845c28.852-1.969 41.389-3.541 42.453-5.319 11.224-18.682 15.060-25.858 15.060-28.116 0-3.369-44.036-91.629-46.483-93.128-2.719-1.672-15.872 8.646-27.316 21.449-14.304 16.001-27.171 36.024-34.928 54.394-7.232 17.103-14.944 46.628-13.312 50.912 1.326 3.458 11.706 3.44 64.526-0.176zM557.381 520.924c-1.756-23.814-17.862-61.48-37.188-87.046-11.74-15.525-32.785-35.774-37.172-35.774-1.203 0-12.73 21.153-25.611 47.015l-23.406 47.015 4.028 6.113c2.211 3.359 6.162 10.204 8.768 15.199 4.755 9.1 4.758 9.102 16.98 10.218 26.002 2.385 65.516 4.52 79.499 4.301l14.626-0.225-0.507-6.817zM384.034 462.392c5.566-5.907 55.859-86.936 55.135-88.818-1.493-3.902-25.049-10.496-48.956-13.704-24.683-3.321-50.801-1.499-75.112 5.23-18.070 5.011-21.992 7.139-20.893 11.322 1.098 4.176 51.777 82.324 55.254 85.193 2.456 2.009 32.756 2.71 34.572 0.778z"></path>
	<path fill="rgb(79, 78, 77)" class="path8 fill-color3" d="M163.922 834.458c-20.34-14.117-61.648-54.62-77.383-75.886-43.465-58.739-67.678-132.505-67.691-206.216-0.032-91.255 34.373-176.098 99.208-244.67 14.209-15.023 53.043-45.226 72.793-56.62 137.731-79.409 313.061-56.072 423.383 56.325 50.231 51.176 82.316 113.243 95.104 183.937 4.932 27.272 5.908 81.162 1.959 108.379-5.137 35.391-19.32 80.436-35.265 111.914-7.839 15.491-27.867 45.564-41.136 61.777-19.319 23.615-61.807 61.585-79.292 70.859-3.143 1.663-52.822 2.257-189.262 2.257h-185.005l-17.395-12.072zM415.578 824.215c87.639-16.075 161.347-72.188 199.882-152.194 19.614-40.721 27.265-74.997 27.351-122.561 0.246-130.969-89.592-239.439-223.328-269.65-24.706-5.578-82.987-5.055-110.162 1.009-55.202 12.295-97.928 35.691-137.529 75.292-53.425 53.425-80.852 119.118-81.379 194.998-0.428 60.693 17.789 116.89 53.544 165.092 44.572 60.107 113.077 100.080 189.753 110.679 17.644 2.434 61.931 1.010 81.885-2.649zM348.303 791.584c-124.292-7.742-222.27-112.891-222.253-238.478 0.009-65.561 22.374-121.837 66.667-167.807 28.844-29.935 62.566-51.041 100.488-62.92 30.426-9.532 39.998-10.93 74.574-10.877 28.25 0.047 34.72 0.688 53.174 5.28 95.933 23.87 161.528 92.508 183.009 191.468 3.451 15.916 3.406 70.233-0.080 87.726-20.197 101.408-99.492 178.203-200.049 193.756-19.774 3.058-30.383 3.406-55.561 1.835zM406.792 742.33c19.445-4.119 35.102-10.551 35.013-14.387-0.042-1.795-12.98-22.579-28.757-46.16l-28.676-42.887-17.143-0.039c-14.729-0.036-17.65 0.514-20.75 3.905-8.682 9.488-54.791 82.228-54.287 85.642 0.856 5.867 24.792 12.981 59.038 17.569 9.833 1.317 42.159-0.801 55.561-3.627zM275.757 657.423l23.95-46.707-8.198-13.734c-4.506-7.559-9.143-14.475-10.299-15.4-1.875-1.485-76.819-6.129-98.133-6.085-7.923 0.011-8.289 0.266-8.289 5.954 0 17.653 14.884 55.732 31.299 80.092 11.448 16.983 36.546 42.663 41.676 42.622 3.313-0.032 8.419-8.55 27.995-46.742zM504.147 689.078c25.767-26.159 42.654-56.226 51.333-91.376 5.875-23.813 6.936-23.008-28.331-21.471-65.176 2.849-74.024 3.647-76.941 6.892-4.77 5.348-16.289 26.15-15.686 28.327 0.311 1.145 10.886 22.47 23.479 47.4 19.154 37.936 23.575 45.335 27.086 45.335 2.636 0 9.688-5.58 19.060-15.106zM384.372 592.326c17.874-8.457 26.324-21.821 26.324-41.683 0-9.354-1.115-13.226-6.337-21.91-16.839-28.034-56.651-28.787-74.95-1.403-12.242 18.298-10.429 37.637 5.068 54.355 14.371 15.489 31.78 19.215 49.895 10.641zM241.086 526.571c20.917-1.223 39.181-3.148 40.613-4.293s4.759-6.083 7.403-10.975c2.644-4.892 6.206-11.11 7.906-13.825 3.010-4.801 2.46-6.2-20.259-51.672-18.070-36.154-24.256-46.873-27.36-47.338-2.847-0.425-8.327 3.792-18.848 14.539-29.255 29.821-46.633 61.474-54.575 99.328-3.62 17.276-2.158 19.103 14.197 17.615 7.11-0.644 30.039-2.171 50.956-3.394zM555.789 529.5c9.535-3.659-5.993-52.611-27.126-85.468-10.892-16.94-39.685-46.24-44.74-45.518-3.113 0.438-9.303 11.012-27.426 46.881-23.384 46.275-23.394 46.316-20.077 51.672 1.827 2.942 5.487 9.36 8.13 14.253s5.986 9.831 7.403 10.978c1.416 1.147 22.764 3.367 47.43 4.94s46.746 2.987 49.076 3.153c2.33 0.166 5.615-0.243 7.313-0.89zM388.285 457.073c17.791-25.313 51.648-79.334 51.648-82.426 0-2.888-3.281-4.722-15.151-8.469-22.45-7.095-44.546-9.753-69.503-8.388-28.678 1.572-63.513 10.727-63.513 16.708 0 1.877 51.505 81.297 56.073 86.479 2.419 2.728 6.241 3.409 19.153 3.409h16.135l5.143-7.313z"></path>
	<path fill="rgb(55, 54, 53)" class="path9 fill-color2" d="M172.737 838.999c-50.072-32.17-98.595-90.047-122.606-146.247-20.852-48.797-29.265-88.989-29.315-140.162-0.080-71.121 19.264-135.57 58.103-193.664 53.772-80.41 133.349-131.624 231.929-149.274 23.266-4.166 83.723-4.685 105.706-0.924 37.084 6.37 67.348 15.608 97.159 29.656 50.965 24.033 90.723 55.737 127.102 101.407 42.757 53.67 68.527 124.629 71.423 196.729 2.477 61.766-8.922 115.018-36.528 170.587-23.787 47.902-55.516 86.361-99.145 120.181l-22.258 17.265h-372.899l-8.671-5.571zM392.742 828.884c104.205-11.236 191.878-76.283 231.119-171.48 43.515-105.53 16.969-230.173-65.431-307.245-80.725-75.496-194.451-97.152-295.9-56.353-37.601 15.131-63.376 32.543-93.583 63.254-37.974 38.591-61.329 81.284-74.194 135.603-5.157 21.778-7.27 70.456-4.077 94.179 8.462 62.795 35.086 116.809 79.408 161.088 22.761 22.747 46.581 39.612 75.883 53.767 19.996 9.657 31.556 13.741 63.37 22.408 6.307 1.712 45.305 6.301 56.137 6.597 4.598 0.126 16.884-0.687 27.3-1.819zM338.557 789.803c-32.115-4.99-56.672-12.498-80.909-24.683-86.105-43.344-139.095-138.619-129.669-233.184 5.835-58.656 26.66-105.038 65.087-145.087 82.894-86.342 211.164-99.276 311.513-31.405 17.232 11.655 42.634 36.847 56.152 55.688 29.81 41.556 44.924 88.679 44.924 139.988 0 86.31-42.251 161.395-116.18 206.445-42.801 26.082-105.024 39.38-150.919 32.237zM384.95 746.951c31.3-3.453 58.905-12.115 58.905-18.462 0-3.105-55.419-87.705-58.831-89.807-2.766-1.707-30.882-1.696-35.728 0.013-4.339 1.534-58.115 82.277-59.119 88.746-1.28 8.348 27.486 16.724 73.329 21.345 1.391 0.135 11.027-0.685 21.443-1.835zM276.052 659.933c22.453-44.103 26.022-53.396 21.528-56.181-1.1-0.679-4.596-6.387-7.782-12.689-4.967-9.828-6.688-11.608-12.135-12.455-8.166-1.27-67.925-4.001-88.233-4.042l-15.602-0.035-0.639 5.584c-1.837 16.116 18.157 64.959 36.414 88.959 12.814 16.849 34.072 37.046 38.995 37.046 3.185 0 8.468-8.894 27.47-46.204zM504.024 691.031c16.662-16.542 27.19-31.1 37.891-52.335 7.456-14.838 15.914-39.649 17.912-52.609 2.036-13.181 2.223-13.141-53.977-10.545-27.136 1.246-51.182 3.010-53.461 3.881-2.293 0.894-7.71 8.162-12.213 16.364l-8.090 14.753 14.882 29.771c26.586 53.184 33.898 65.841 38.060 65.841 2.124 0 10.499-6.647 19.011-15.106zM388.62 591.946c31.141-18.045 32.066-60.962 1.706-79.727-8.294-5.135-11.364-5.905-23.485-5.905-12.118 0-15.193 0.771-23.486 5.902-5.243 3.239-12.196 9.657-15.429 14.255-4.968 7.061-5.992 10.582-6.595 22.58-0.806 15.95 1.662 22.886 12.082 33.956 15.133 16.078 36.832 19.6 55.207 8.94zM230.348 528.697c56.576-2.972 52.53-1.945 59.565-15.175 3.264-6.119 7.308-13.32 8.987-16.026 2.982-4.761 2.389-6.257-20.601-52.234-13.022-26.033-24.978-47.824-26.578-48.445-4.009-1.537-11.576 3.83-24.923 17.699-23.571 24.505-41.818 56.568-49.943 87.754-6.419 24.63-4.709 31.19 7.655 29.306 2.685-0.417 23.31-1.71 45.823-2.895zM560.436 525.517c0.905-6.388-6.126-33.040-13.2-49.994-3.487-8.348-10.752-21.951-16.128-30.213-12.451-19.1-41.468-49.143-47.469-49.143-3.738 0-7.687 6.767-28.119 48.248-23.006 46.677-23.683 48.411-20.746 53.128 1.666 2.68 5.701 9.874 8.964 15.993 5.008 9.396 6.901 11.272 12.282 12.093 12.050 1.866 62.953 4.47 83.369 4.267 19.366-0.181 20.503-0.423 21.063-4.38zM395.437 448.784c33.433-50.060 46.545-71.432 46.031-75.035-1.094-7.576-45.988-18.576-75.627-18.506-26.626 0.050-70.191 10.222-73.968 17.274-1.531 2.857 3.276 11.44 25.233 45.017 14.925 22.812 28.638 43.168 30.497 45.212 2.897 3.199 5.67 3.648 20.066 3.156l16.686-0.556 11.065-16.579z"></path>
	<path fill="rgb(42, 41, 40)" class="path10 fill-color1" d="M163.837 830.435c-20.642-14.518-57.76-50.921-74.053-72.642-33.31-44.397-54.828-97.709-64.994-161.062-2.685-16.757-2.673-75.128 0.035-90.313 6.25-35.146 6.54-36.335 15.702-65.428 23.177-73.506 82.766-147.062 151.478-187.004 27.36-15.907 72.749-33.263 101.714-38.89 5.903-1.148 15.556-3.16 21.443-4.496 13.654-3.061 88.892-3.18 102.352-0.161 50.867 11.397 53.041 12.003 77.578 21.77 42.882 17.057 76.957 39.081 110.296 71.257 55.547 53.636 84.858 109.415 101.967 194.060 3.445 17.046 3.454 90.092 0.012 107.233-12.202 60.798-25.695 95.12-54.446 138.422-23.401 35.257-46.323 59.181-84.476 88.222l-14.726 11.218h-372.59l-17.31-12.172zM397.047 829.907c32.166-4.214 47.354-7.86 69.638-16.678 31.006-12.287 50.398-23.403 75.003-43.041 65.883-52.535 104.903-134.383 104.903-220.009 0-74.452-27.91-141.023-81.808-195.116-52.479-52.656-112.436-79.109-188.219-83.022-58.030-2.989-118.081 14.366-168.651 48.747-20.449 13.905-59.13 53.082-72.491 73.415-20.548 31.264-36.536 67.382-41.42 93.583-0.692 3.749-2.119 10.334-3.146 14.626-3.833 15.959-5.278 55.813-2.797 77.004 2.35 20.048 2.889 23.108 7.111 40.951 19.896 83.842 85.158 158.628 166.335 190.608 48.845 19.235 89.665 24.937 135.494 18.934zM334.669 787.629c-77.368-13.265-135.056-51.687-173.127-115.319-8.115-13.558-19.226-38.362-21.979-49.034-14.285-55.471-14.976-80.996-3.522-128.677 20.167-83.918 85.202-150.328 168.4-171.979 29.683-7.731 34.287-8.37 59.979-8.332 47.399 0.073 86.397 10.638 125.912 34.149 55.43 32.971 95.114 89.634 109.869 156.883 3.159 14.428 4.201 67.605 1.607 82.861-16.795 98.768-89.068 175.514-184.277 195.685-30.46 6.459-59.421 7.755-82.861 3.745zM385.523 748.924c34.166-4.296 60.267-12.902 60.267-19.901 0-3.828-54.373-88.147-59.426-92.148-1.946-1.535-26.834-2.22-38.589-1.065-2.382 0.242-59.9 88.339-59.863 91.701 0.048 5.266 2.602 7.238 14.592 11.317 16.026 5.447 20.845 6.564 39.974 9.309 22.069 3.152 24.035 3.191 43.078 0.802zM255.425 703.706c1.498-2.417 12.939-24.491 25.429-49.048 21.265-41.856 22.503-44.92 19.734-48.744-1.623-2.247-5.571-9.060-8.763-15.145s-6.926-11.781-8.289-12.644c-1.363-0.863-15.646-2.161-31.728-2.855s-39.521-1.947-52.079-2.758c-30.493-1.966-32.638 0.084-26.083 24.845 10.167 38.403 26.421 66.627 54.928 95.417 16.288 16.45 21.984 18.759 26.852 10.931zM506.157 691.031c22.090-22.242 36.254-44.397 46.443-72.62 8.289-22.981 11.006-37.696 7.994-43.314-2.033-3.787-3.282-3.946-22.889-2.76-11.406 0.686-34.788 1.786-51.94 2.434-21.645 0.818-32.536 2.032-35.564 3.922-2.412 1.5-6.553 7.053-9.226 12.306s-5.745 10.126-6.842 10.804c-5.107 3.154-0.968 14.937 19.774 56.184 11.961 23.809 23.064 44.804 24.672 46.695 5.329 6.248 10.219 3.827 27.595-13.65zM386.998 595.178c8.561-4.375 18.899-14.375 23.057-22.302 4.037-7.706 5.402-24.030 2.811-33.601-3.069-11.362-12.208-23.050-22.939-29.343-7.712-4.518-11.515-5.414-22.983-5.445-19.869-0.042-32.594 7.576-43.766 26.2-6.474 10.806-5.773 31.171 1.534 43.863 6.556 11.405 10.459 15.224 20.847 20.412 10.47 5.228 31.403 5.329 41.437 0.217zM253.744 529.468c13.945-0.677 26.884-2.034 28.762-3.013s6.087-6.797 9.354-12.923c3.267-6.125 7.314-13.348 9.009-16.037 2.983-4.762 2.377-6.296-21.536-54.105-19.261-38.492-25.43-49.208-28.332-49.208-4.717 0-20.205 12.197-31.227 24.58-10.517 11.824-26.259 35.556-32.24 48.586-12.346 26.973-19.961 59.181-15.178 64.183 1.362 1.413 17.906 0.989 81.405-2.081zM561.41 521.9c-0.635-16.118-7.738-38.962-19.057-61.3-14.756-29.107-49.636-67.518-59.978-66.054-3.603 0.512-8.52 8.889-27.317 46.404-12.621 25.179-23.409 47.299-24.001 49.162-1.113 3.525 11.144 26.372 18.371 34.236 3.654 3.966 5.924 4.413 24.082 4.597 11.025 0.121 25.315 0.884 31.745 1.696s21.784 1.371 34.117 1.244l22.42-0.223-0.383-9.746zM385.51 466.63c0.628-0.162 6.33-8.373 12.674-18.249s19.222-29.643 28.595-43.905c17.015-25.872 19.273-31.346 14.581-35.252-3.063-2.546-16.685-7.066-29.687-9.862-5.361-1.15-13.866-2.989-18.893-4.093-11.837-2.595-39.355-2.564-52.609 0.046-25.771 5.099-30.489 6.264-39.977 9.956-5.543 2.162-10.63 5.319-11.28 7.025-1.308 3.396-0.927 4.040 32.884 56.021 12.551 19.305 24.044 36.035 25.556 37.187 2.136 1.652 32.534 2.541 38.157 1.11z"></path>
</symbol>
</defs>
</svg>
