<svg style="position: absolute; width: 0; height: 0;" width="0" height="0" version="1.1" xmlns="http://www.w3.org/2000/svg" xmlns:xlink="http://www.w3.org/1999/xlink">
<defs>
<symbol id="icon-autoguru-flat-tire-chopped" viewBox="0 0 1110 1024">
	<title>flat-tire-chopped</title>
	<path class="path1" d="M232.579 998.585c-142.758-106.743-222.354-263.97-222.931-440.443-0.566-171.287 68.176-318.506 200.709-429.814 144.633-121.474 341.715-157.617 526.065-96.483 183.979 61.006 316.038 207.356 363.695 403.046 14.097 57.887 14.259 182.154 0.311 238.96-32.589 132.73-103.002 241.738-208.669 323.046l-35.223 27.104-590.041-0.049-33.928-25.368zM675.495 974.016c139.037-35.046 252.713-145.314 301.416-292.371 13.934-42.076 16.38-60.261 16.594-123.373 0.288-84.767-9.381-129.468-42.727-197.541-54.235-110.765-160.484-195.789-286.375-229.164-58.973-15.634-156.092-14.129-218.712 3.395-138.553 38.764-248.81 143.054-297.513 281.41-16.019 45.51-17.361 56.308-17.228 138.795 0.129 81.925 1.593 93.591 17.418 138.736 77.089 219.931 298.692 337.678 527.15 280.092zM474.193 928.615c-66.508-15.15-127.938-49.843-180.412-101.907-74.36-73.728-108.588-148.394-114.639-249.905-6.81-114.303 29.358-208.63 111.387-290.53 77.73-77.612 163.060-113.637 268.747-113.454 180.589 0.313 328.44 115.029 373.545 289.839 14.343 55.587 10.323 161.101-8.147 213.846-39.974 114.15-123.724 198.143-240.287 240.983-52.661 19.354-151.073 24.555-210.189 11.107zM644.34 847.504c17.812-4.883 32.386-11.145 32.386-13.914s-20.125-35.133-44.723-71.917l-44.723-66.883-54.077-0.782-45.444 69.706c-24.994 38.339-45.444 70.742-45.444 72.006 0 4.8 47.559 17.707 80.148 21.751 40.784 5.061 78.248 1.999 121.878-9.963zM415.078 720.232l37.318-75.603-15.333-23.096-15.338-23.145-49.858-0.049c-27.422-0.030-64.82-1.85-83.109-4.046l-33.253-3.993 4.281 24.094c7.454 41.95 44.575 111.924 78.283 147.565 17.598 18.608 33.727 33.832 35.842 33.832s20.64-34.005 41.165-75.564zM794.895 750.832c30.859-38.809 58.691-96.355 64.495-133.352l4.266-27.188-33.329 4.002c-18.331 2.201-56.174 4.026-84.096 4.055l-50.766 0.054-25.098 49.195 37.221 74.251c42.759 85.3 42.575 85.236 87.304 28.984zM606.381 602.093c45.926-45.926 15.774-114.737-50.277-114.737-30.078 0-64.46 32.737-64.46 61.376 0 42.48 29.931 74.335 69.844 74.335 18.977 0 28.253-4.333 44.893-20.973zM386.608 512.030c34.094 0 35.403-0.638 51.373-25.030l16.387-25.030-36.929-73.669c-20.311-40.518-39.55-73.669-42.753-73.669-8.278 0-47.606 41.4-69.696 73.368-19.081 27.615-47.394 99.133-47.63 120.309-0.12 10.823 3.409 11.401 47.066 7.711 25.963-2.221 62.945-3.997 82.186-3.997zM859.37 491.982c-2.183-14.419-13.648-46.050-25.479-70.288-21.59-44.237-71.754-107.059-85.483-107.059-4.039 0-23.566 32.807-43.393 72.904l-36.048 72.904 32.249 51.086 50.973 2.080c28.035 1.144 64.514 2.645 81.061 3.335l30.103 1.234-3.997-26.219zM632.487 344.6c27.253-41.23 42.995-70.668 39.604-74.059-3.095-3.095-27.613-10.142-54.487-15.66-40.565-8.33-56.954-8.864-96.572-3.146-26.243 3.788-54.511 10.467-62.817 14.843l-15.047 7.955 91.487 138.79 52.651-0.302 45.232-68.428z"></path>
</symbol>
<symbol id="icon-autoguru-flat-tire-square" viewBox="0 0 1024 1024">
	<title>flat-tire-square</title>
	<path class="path1" d="M211.918 920.917c-131.655-98.441-205.059-243.439-205.592-406.187-0.521-157.965 62.874-293.733 185.098-396.384 133.384-112.026 315.16-145.358 485.148-88.979 169.711 56.261 291.499 191.229 335.417 371.698 13 53.385 13.15 167.986 0.287 220.374-30.055 122.407-94.991 222.936-192.439 297.92l-32.483 24.996-544.149-0.046-31.289-23.395zM620.385 898.259c128.223-32.32 233.058-134.012 277.973-269.631 12.851-38.803 15.106-55.574 15.303-113.778 0.265-78.174-8.652-119.398-39.404-182.176-50.062-102.15-148.048-180.561-264.146-211.34-54.34-14.418-143.906-13.030-201.678 3.131-127.777 35.749-229.458 131.928-274.373 259.523-14.773 41.97-16.009 51.928-15.89 128 0.119 75.553 1.469 86.312 16.063 127.945 71.093 202.825 275.461 311.414 486.15 258.307zM434.718 856.389c-61.335-13.972-117.988-45.966-166.38-93.98-68.572-67.994-100.143-136.852-105.722-230.468-6.276-105.413 27.075-192.403 102.723-267.933 71.685-71.575 150.378-104.798 247.822-104.63 166.543 0.288 302.895 106.082 344.492 267.296 13.228 51.264 9.52 148.571-7.513 197.213-36.865 105.272-114.101 182.732-221.598 222.24-48.565 17.849-139.323 22.645-193.841 10.243zM591.631 781.587c16.427-4.504 29.867-10.278 29.867-12.832s-18.56-32.4-41.244-66.323l-41.244-61.681-49.871-0.721-41.909 64.284c-23.050 35.357-41.909 65.24-41.909 66.405 0 4.427 43.86 16.33 73.915 20.059 37.612 4.668 72.162 1.843 112.399-9.188zM380.213 664.205l34.417-69.687-28.284-42.667-45.98-0.050c-25.289-0.027-59.779-1.706-76.645-3.732l-30.666-3.682 3.948 22.22c6.874 38.688 41.108 103.219 72.194 136.087 16.229 17.16 31.104 31.201 33.055 31.201s19.035-31.36 37.964-69.687zM730.49 692.425c28.459-35.79 54.126-88.86 59.478-122.98l3.934-25.073-30.737 3.69c-16.906 2.030-51.805 3.713-77.555 3.74l-46.817 0.050-23.146 45.369 34.326 68.476c39.433 78.666 39.263 78.607 80.514 26.73zM556.637 555.254c42.354-42.354 14.547-105.813-46.367-105.813-27.739 0-59.447 30.191-59.447 56.602 0 39.176 27.603 68.553 64.412 68.553 17.501 0 26.055-3.996 41.401-19.342zM353.981 472.196c31.442 0 32.65-0.588 47.377-23.083l15.112-23.083-34.057-67.939c-18.728-37.365-36.473-67.939-39.426-67.939-7.634 0-43.904 38.18-64.275 67.661-17.597 25.468-43.708 91.423-43.925 110.952-0.111 9.981 3.144 10.514 43.405 7.111 23.939-2.048 58.045-3.686 75.79-3.686zM789.973 453.705c-2.002-13.294-12.607-42.466-23.484-64.821-19.934-40.796-66.173-98.732-78.871-98.732-3.725 0-21.733 30.256-40.018 67.234l-33.245 67.234 29.741 47.112 47.008 1.918c25.854 1.055 59.497 2.439 74.757 3.076l27.716 1.138-3.641-24.18zM580.758 317.786c25.134-38.024 39.651-65.172 36.524-68.299-2.854-2.854-25.465-9.353-50.249-14.442-37.41-7.682-52.524-8.174-89.061-2.902-24.202 3.493-50.272 9.653-57.931 13.688l-13.926 7.337 84.371 127.995 48.556-0.279 41.714-63.106z"></path>
</symbol>
<symbol id="icon-autoguru-gas-delivery" viewBox="0 0 1024 1024">
	<title>gas-delivery</title>
	<path class="path1" d="M172.414 663.097v-282.497h28.683v-276.671l33.464-36.903 182.613-1.71c100.438-0.941 191.283-0.138 201.878 1.784 28.625 5.191 46.704 27.321 46.704 57.171 0 22.246 2.076 25.873 22.394 39.115 19.134 12.471 27.693 14.367 58.8 13.027 36.041-1.553 36.88-1.241 83.731 31.154 26.030 17.998 47.373 35.69 47.427 39.315 0.057 3.626 2.65 30.443 5.768 59.592 5.608 52.438 5.515 53.152-8.704 67.156-20.38 20.072-18.739 49.311 6.756 120.386 17.369 48.419 21.184 66.942 21.44 104.102 0.266 38.667-1.958 49.457-15.391 74.675-44.66 83.827-110.838 101.786-168.76 45.798l-24.777-23.949v250.948h-522.022v-282.497zM822.905 685.448c48.205-41.688 56.302-105.372 21.92-172.455-39.658-77.373-43.507-115.639-14.989-149.022l14.49-16.961-19.922-21.342c-10.957-11.738-24.679-26.742-30.494-33.342-10.388-11.791-119.735-92.524-125.319-92.524-1.569 0-2.853 40.68-2.853 90.399v90.399h28.683v227.31l21.054 29.007c51.327 70.715 71.33 79.749 107.429 48.533zM578.464 371.808c25.147-17.348 29.926-36.24 29.926-118.306 0-127.213 0.124-127.122-179.141-127.122-140.056 0-144.921 1.018-162.215 33.962-6.372 12.136-8.572 36.044-8.572 93.161 0 82.066 4.779 100.957 29.926 118.306 18.98 13.094 271.096 13.094 290.074 0z"></path>
</symbol>
<symbol id="icon-autoguru-towing" viewBox="0 0 1024 1024">
	<title>towing</title>
	<path class="path1" d="M190.009 675.916c-16.509-16.517-19.342-23.268-19.342-46.080 0-22.822 2.832-29.571 19.342-46.080 16.433-16.433 23.307-19.342 45.712-19.342 30.223 0 51.266 11.546 63.238 34.697 24.5 47.377-8.979 96.148-65.999 96.148-19.263 0-27.166-3.56-42.949-19.342zM266.437 655.326c1.047-7.761 4.247-16.543 7.111-19.517 9.832-10.205 5.283-26.137-9.015-31.573-7.822-2.974-14.222-8.031-14.222-11.237 0-8.888-20.436-6.946-28.444 2.704-3.895 4.693-10.458 8.533-14.583 8.533-13.015 0-15.531 11.816-7.699 36.162 9.317 28.96 9.766 29.286 40.239 29.15 21.965-0.099 24.921-1.679 26.615-14.222zM741.839 675.92c-16.51-16.51-19.342-23.258-19.342-46.080s2.832-29.571 19.342-46.080c15.782-15.782 23.687-19.342 42.949-19.342 30.087 0 54.623 12.695 65.612 33.947 24.885 48.12-8.144 96.897-65.612 96.897-19.263 0-27.166-3.56-42.949-19.342zM818.267 655.33c1.047-7.761 4.247-16.543 7.111-19.517 9.832-10.205 5.283-26.137-9.015-31.573-7.822-2.974-14.222-8.031-14.222-11.237 0-8.888-20.436-6.946-28.444 2.704-3.895 4.693-10.689 8.533-15.097 8.533-12.325 0-15.1 14.403-7.353 38.165 8.643 26.508 9.796 27.284 40.406 27.145 21.965-0.099 24.921-1.679 26.615-14.222zM23.776 604.983c-4.138-2.617-9.586-13.919-12.108-25.088-5.603-24.841 2.729-43.956 23.51-53.912 21.343-10.24 50.165-38.495 50.165-49.171 0-20.16-36.883-8.062-50.32 16.505-4.872 8.907-6.261 9.382-6.396 2.189-0.095-5.054 5.491-16.574 12.414-25.6 28.058-36.581 132.883-145.491 150.536-156.401 14.726-9.101 35.677-13.036 94.915-17.824 41.81-3.38 80.369-4.476 85.684-2.436 8.639 3.315 9.548 14.133 8.559 101.89l-1.107 98.183 74.724 1.587c73.024 1.551 83.96-1.061 66.19-15.81-8.858-7.352-11.476-37.998-4.18-48.926 2.299-3.443 10.259-9.464 17.69-13.38 11.532-6.078 15.698-5.495 28.444 3.978 17.875 13.284 21.967 36.866 9.659 55.653-4.911 7.509-8.932 15.019-8.932 16.687 0 1.674 69.12 3.045 153.6 3.045s153.6-2.247 153.6-4.992-3.84-8.179-8.533-12.074c-19.776-16.413-2.492-68.267 22.756-68.267s42.532 51.854 22.756 68.267c-16.813 13.954-7.682 17.067 50.058 17.067h58.592l-2.437 21.333c-1.34 11.733-5.306 23.214-8.813 25.513s-37.659 4.219-75.894 4.267l-69.518 0.087 14.051 20.706c16.229 23.916 17.42 30.494 5.517 30.494-4.693 0-8.533-2.378-8.533-5.284s-8.622-14.426-19.16-25.6c-18.572-19.691-20.436-20.317-60.708-20.317h-41.548l-25.041 26.133c-28.133 29.362-36.623 29.059-22.386-0.798 5.253-11.017 9.557-21.22 9.557-22.68 0-1.458-72.96-2.651-162.133-2.651h-162.133v25.399c0 29.006-9.177 37.179-41.753 37.179-17.299 0-21.55-3.080-34.313-24.86-18.489-31.535-46.44-45.833-81.844-41.832-30.625 3.451-51.515 17.768-66.807 45.796l-11.378 20.859-59.733-0.057c-32.853-0.057-63.118-2.219-67.256-4.855zM361.26 462.021c0-7.301-3.2-14.341-7.111-15.644-4.691-1.564-7.111 3.761-7.111 15.644s2.42 17.208 7.111 15.644c3.911-1.304 7.111-8.344 7.111-15.644zM555.478 459.177c1.801-4.693 1.818-12.33 0.038-16.971-4.267-11.093-20.745-4.646-20.745 8.097 0 17.728 14.856 24.096 20.698 8.873zM895.427 458.663c4.271-11.131-0.326-19.397-10.788-19.397-10.237 0-16.064 9.751-12.060 20.184 4.229 11.021 18.506 10.53 22.848-0.786zM208.437 427.412c24.347-3.386 52.051-10.086 61.567-14.888 35.954-18.148 59.961-49.778 59.961-79.038v-15.318l-45.742 3.135c-36.473 2.5-54.34 7.218-88.178 23.288-31.141 14.772-42.439 23.059-42.439 31.118 0 6.030-3.84 20.154-8.533 31.387s-8.533 21.785-8.533 23.45c0 4.646 23.26 3.634 71.887-3.13zM455.126 425.914c0-27.259 2.437-38.233 9.956-44.825 19.898-17.447 48.050-27.699 85.495-31.133 26.548-2.436 43.457-7.379 55.305-16.166 27.119-20.112 49.353-29.73 91.121-39.418 35.664-8.271 42.771-8.264 83.685 0.082 77.828 15.874 169.37 59.976 169.37 81.6 0 5.835 3.959 13.896 8.799 17.912 6.313 5.239 8.322 15.481 7.111 36.251-1.638 28.097-2.232 29.002-20.177 30.733-16.641 1.604-18.489 0.281-18.489-13.238 0-17.496-27.931-48.278-43.808-48.278-17.863 0-35.182 16.404-42.259 40.029l-6.756 22.549h-242.821v-14.66c0-17.391-28.226-47.918-44.307-47.918-16.866 0-39.452 20.658-46.746 42.756-5.776 17.501-8.821 19.822-26.011 19.822h-19.469v-36.096zM768.015 334.147c0-16.26-2.356-19.659-15.644-22.57-8.604-1.885-29.537-0.789-46.518 2.436-35.078 6.662-93.633 31.744-89.564 38.362 1.486 2.416 36.231 3.61 77.213 2.654l74.505-1.726v-19.143zM878.569 348.841c-7.002-6.45-68.834-29.051-79.479-29.051-5.425 0-8.32 5.854-8.32 16.827v16.827l44.089 1.662c47.601 1.794 51.803 1.192 43.71-6.264z"></path>
</symbol>
<symbol id="icon-autoguru-battery" viewBox="0 0 1024 1024">
	<title>battery</title>
	<path class="path1" d="M19.827 560.697l1.514-297.251 113.937-3.321v-80.782h163.603v81.202h432.374v-75.402h163.603v74.967l108.098 3.335 3.028 594.512h-987.682l1.514-297.256zM947.434 562.147v-243.607h-864.748v487.215h864.748v-243.607zM773.996 742.28c-28.122-12.674-43.343-36.776-43.795-69.35-0.319-22.985 11.664-51.469 26.955-64.066 7.623-6.28 9.15-23.391 9.15-102.532 0-87.258 0.951-95.937 11.686-106.592 14.92-14.811 47.363-15.344 60.443-0.993 8.151 8.941 9.67 25.202 9.67 103.506 0 87.040 0.775 93.594 12.284 103.934 44.153 39.665 36.434 110.952-14.672 135.509-30.28 14.551-40.548 14.635-71.721 0.585zM842.713 707.597c22.447-22.283 23.468-52.634 2.472-73.473-14.392-14.287-14.607-15.899-14.607-109.527 0-78.602-1.585-96.597-9.17-104.129-6.922-6.871-11.935-7.634-20.45-3.11-10.474 5.565-11.28 13.127-11.28 105.895 0 94.222-0.677 100.325-11.9 107.279-40.798 25.292-16.092 92.925 34.26 93.785 7.478 0.127 21.282-7.397 30.675-16.722zM824.084 704.571c-1.87-1.856-0.531-12.476 2.977-23.598 6.758-21.435 21.046-27.725 21.046-9.266 0 12.349-18.791 38.057-24.023 32.864zM799.416 529.281c-5.743-5.701-4.567-90.503 1.384-99.829 11.406-17.876 18.092 1.282 18.092 51.837 0 39.349-1.879 51.86-7.791 51.86-4.285 0-9.544-1.74-11.686-3.867zM672.818 667.926v-14.998l-13.73 12.805c-12.357 11.524-14.495 11.889-21.382 3.653-6.536-7.818-4.536-12.319 13.73-30.888 16.983-17.265 21.382-26.248 21.382-43.668 0-17.754 1.948-21.565 10.225-20.006 7.42 1.397 10.712 8.55 11.999 26.074 0.976 13.282 5.577 27.282 10.225 31.111 9.547 7.865 11.561 34.542 2.608 34.542-3.214 0-5.843-3.045-5.843-6.767s-1.938-4.842-4.308-2.491c-2.369 2.352-4.341 8.404-4.382 13.449s-4.676 9.85-10.3 10.678c-7.493 1.102-10.225-2.504-10.225-13.494zM596.86 640.449c0-15.832-5.468-18.352-16.36-7.54-5.454 5.414-8.57 5.414-14.023 0s-5.454-8.507 0-13.92c10.892-10.812 8.353-16.24-7.596-16.24-10.829 0-14.607-3.074-14.607-11.887 0-10.577 3.226-11.741 29.263-10.561 24.88 1.127 31.746-1.036 45.839-14.439 13.667-12.998 17.741-14.371 23.216-7.822 5.186 6.204 2.826 11.569-10.782 24.511-14.609 13.894-17.422 21.077-17.422 44.484 0 20.947-2.188 27.916-8.765 27.916-5.453 0-8.765-5.478-8.765-14.5zM729.088 580.388c-8.6-9.433-8.136-29.839 0.677-29.839 6.020 0 18.639 20.414 18.822 30.451 0.241 13.135-7.18 12.902-19.5-0.611zM527.014 559.573c-5.626-6.729-4.618-9.854 5.127-15.896 15.34-9.51 15.525-16.33 0.444-16.33-7.918 0-11.686-3.867-11.686-11.991 0-9.352 2.572-11.181 11.686-8.309 13.938 4.391 15.007-1.243 2.781-14.655-5.074-5.566-7.25-14.050-5.057-19.723 3.303-8.545 6.838-7.074 24.973 10.392 15.659 15.082 27.16 20.817 44.448 22.166 16.666 1.3 23.876 4.717 25.261 11.97 1.575 8.253-2.298 10.15-20.716 10.15-18.219 0-26.534 3.974-42.475 20.301-22.281 22.82-24.921 23.725-34.786 11.925zM660.147 553.28c-38.115-20.548-20.252-78.133 24.236-78.133 17.089 0 41.019 25.377 41.019 43.501 0 17.35-23.775 43.61-39.174 43.269-5.77-0.127-17.506-4.014-26.080-8.637zM743.851 515.748c0-7.975 1.326-11.238 2.947-7.25s1.621 10.513 0 14.5c-1.621 3.988-2.947 0.725-2.947-7.25zM614.418 466.459c-10.961-11.582-19.398-14.5-41.919-14.5-24.819 0-28.196-1.471-28.196-12.277 0-9.967 2.748-11.755 14.607-9.505 15.815 3.001 18.525-1.011 7.843-11.614-5.123-5.086-4.875-8.973 1.022-16.027 7.033-8.412 8.28-8.435 12.897-0.246 8.22 14.58 16.217 10.47 16.217-8.334 0-11.6 2.921-17.4 8.765-17.4 6.645 0 8.765 7.153 8.765 29.574 0 25.264 2.51 31.901 17.223 45.543 12.959 12.017 15.563 17.619 10.517 22.628-9.417 9.348-12.221 8.555-27.74-7.844zM722.138 474.556c-2.193-3.522 2.911-13.25 11.341-21.619l15.328-15.215v14.659c0 21.944-17.667 36.634-26.669 22.176zM672.849 437.478c0-15.2-5.354-26.167-21.362-43.756-15.907-17.478-19.672-25.149-14.745-30.041s9.381-4.085 17.44 3.155c14.258 12.809 18.667 12.265 18.667-2.302 0-8.385 3.095-11.391 10.225-9.928 5.624 1.154 9.86 6.565 9.414 12.025-1.010 12.359 2.852 12.517 16.051 0.66 10.816-9.717 22.739-6.768 22.739 5.626 0 4-7.888 14.775-17.529 23.943-13.475 12.815-17.529 21.785-17.529 38.786 0 18.249-2.043 22.115-11.686 22.115-9.458 0-11.686-3.867-11.686-20.284zM748.808 392.169c0-10.008 3.145-15.609 8.765-15.609 10.905 0 10.854 5.47-0.186 19.959-8.227 10.798-8.578 10.62-8.578-4.35z"></path>
</symbol>
<symbol id="icon-autoguru-unlock-car" viewBox="0 0 1024 1024">
	<title>unlock-car</title>
	<path class="path1" d="M209.069 688.219v-252.573h-32.014v232.225c0 231.784-0.026 232.202-12.806 219.55-12.287-12.164-12.806-21.573-12.806-232.225v-219.55h-51.123c-47.441 0-52.629-1.471-72.030-20.445l-20.911-20.445v-266.986l35.484-38.831 161.537-2.234c140.912-1.949 164.099-0.746 181.594 9.414 30.987 17.997 34.368 34.24 34.368 165.101 0 162.902-6.578 174.43-99.546 174.43h-47.718v446.082l-64.029 59.061v-252.573zM337.124 234.264c30.288-16.551 34.463-49.143 9.091-70.975-16.105-13.858-24.79-14.818-133.948-14.818-108.394 0-117.933 1.036-133.598 14.517-26.769 23.034-21.401 57.968 11.3 73.541 13.844 6.593 50.85 9.533 122.297 9.717 85.056 0.219 106.25-1.816 124.855-11.984zM623.457 932.586c-13.32-3.583-32.049-11.008-41.619-16.499-30.028-17.229-72.968-69.14-90.34-109.213l-16.7-38.523v-511.308l17.317-38.571c21.53-47.955 63.297-95.346 101.135-114.756 26.227-13.451 40.019-14.778 153.668-14.778 113.332 0 127.518 1.355 153.668 14.681 38.86 19.801 81.656 68.085 101.84 114.897l16.611 38.523v511.308l-16.996 39.633c-20.17 47.031-61.526 93.402-101.458 113.75-25.396 12.943-42.103 14.843-140.866 16.025-61.627 0.737-122.948-1.591-136.269-5.175zM845.383 890.906c27.465-9.001 57.581-37.642 53.585-50.959-9.764-32.541-96.884-58.3-176.888-52.301-88.241 6.616-138.941 34.5-122.784 67.529 8.725 17.834 37.197 34.585 72.881 42.879 34.013 7.905 140.716 3.504 173.206-7.144zM911.765 677.026c59.843-27.353 72.062-58.787 72.062-185.417 0-104.193-4.179-123.64-34.364-159.944-28.637-34.44-37.99-36.107-202.543-36.107-167.021 0-172.747 1.101-206.088 39.649-26.674 30.84-30.821 51.992-30.821 157.204 0 124.846 12.149 156.549 70.624 184.293 32.763 15.546 297.26 15.799 331.13 0.317zM586.747 639.792c-12.271-7.143-28.746-25.266-36.611-40.275-12.459-23.773-14.315-37.473-14.407-106.364-0.087-65.927 2.067-83.736 12.959-107.092 21.13-45.308 42.982-55.423 119.794-55.455l65.632-0.028v322.2h-62.528c-48.597 0-67.498-2.893-84.837-12.987zM659.251 590.249c8.587-3.572 21.613-17.113 28.946-30.091 15.872-28.094 25.578-82.489 14.719-82.489-3.972 0-7.221-6.511-7.221-14.469 0-17.646-10.032-39.814-27.528-60.826-29.391-35.3-83.75-5.942-92.005 49.689-2.089 14.084-6.303 25.608-9.364 25.608-10.721 0-5.427 40.108 9.33 70.692 20.793 43.093 47.664 56.634 83.121 41.887zM625.263 533.706c0-28.212 4.716-34.066 16.797-20.849 9.181 10.043 2.888 48.865-7.92 48.865-6.088 0-8.877-8.802-8.877-28.017zM593.248 463.345c0-16.979 27.112-48.711 41.619-48.711s41.619 31.732 41.619 48.711c0 12.963-3.96 14.327-41.619 14.327s-41.619-1.363-41.619-14.327zM759.723 492.301v-161.719h64.876c75.685 0 99.961 11.327 121.009 56.461 17.198 36.877 17.943 173.261 1.133 207.39-22.317 45.305-41.458 54.586-118.006 57.217l-69.013 2.371v-161.719zM887.446 586.431c10.205-5.773 24.17-23.727 31.712-40.77 11.683-26.401 12.906-37.842 9.188-85.952-3.701-47.891-6.707-58.145-21.933-74.802-9.704-10.616-22.473-19.302-28.374-19.302-18.105 0-52.993 21.315-63.442 38.762-14.731 24.593-0.966 28.095 25.063 6.377 37.158-31.004 70.647-10.244 66.114 40.988l-1.984 22.44-120.013 4.050 4.264 29.171c10.262 70.201 53.808 104.83 99.401 79.039zM851.888 535.459c0.474-18.348 3.574-26.266 10.284-26.266 5.282 0 9.316 3.94 8.964 8.755s-1.072 16.635-1.601 26.266c-1.618 29.502-18.421 21.165-17.647-8.755z"></path>
</symbol>
<symbol id="icon-autoguru-other" viewBox="0 0 1024 1024">
	<title>other</title>
	<path class="path1" d="M100.379 641.343c-55.71-14.199-96.62-68.221-97.112-128.205-0.524-63.602 35.316-112.067 99.16-134.103l31.332-10.813 40.927 20.873c33.087 16.875 44.066 26.597 57.317 50.759 44.102 80.418 7.485 178.276-75.016 200.476-29.904 8.047-28.986 8.030-56.602 0.993zM482.058 641.761c-52.138-17.921-82.057-51.15-93.366-103.693-5.294-24.596-5.252-39.748 0.17-61.19 8.643-34.179 42.398-76.126 70.083-87.086 11.032-4.369 24.898-10.672 30.812-14.008s15.009-6.065 20.21-6.065c5.201 0 14.296 2.73 20.21 6.066s19.78 9.64 30.812 14.008c27.683 10.962 61.44 52.907 70.083 87.086 9.145 36.163-0.296 84.678-22.543 115.849-27.122 38-88.892 61.95-126.466 49.038zM854.439 637.892c-65.727-22.268-102.605-100.225-80.222-169.579 12.278-38.045 31.117-58.837 72.367-79.877l39.594-20.193 31.332 10.813c41.102 14.185 69.391 37.933 85.893 72.108 49.466 102.427-45.698 221.712-148.962 186.728z"></path>
</symbol>
<symbol id="icon-autoguru-komissar" viewBox="0 0 1024 1024">
	<title>komissar</title>
	<path class="path1" d="M195.217 718.191c-36.223-20.579-53.62-53.976-49.261-94.568 9.638-89.771 111.812-118.632 164.289-46.408 20.917 28.789 22.613 78.703 3.59 105.655-30.451 43.145-79.259 57.68-118.613 35.321zM277.251 666.099c2.962-12.060 8.129-25.416 11.481-29.679 8.268-10.511 0.72-39.239-10.31-39.239-4.883 0-14.715-7.049-21.85-15.663-15.836-19.12-23.493-19.604-38.243-2.414-6.253 7.287-17.481 15.703-24.95 18.702-17.173 6.894-23.137 22.716-14.217 37.712 3.8 6.389 6.91 14.29 6.91 17.558s2.561 13.013 5.69 21.655c5.308 14.657 8.189 15.631 42.897 14.505 37.2-1.207 37.208-1.212 42.591-23.136zM803.954 718.191c-22.603-12.841-29.232-19.962-41.198-44.255-37.802-76.743 44.042-166.729 118.095-129.839 34.872 17.372 54.206 48.818 54.206 88.159 0 37.038-11.889 58.953-44.699 82.394-23.495 16.787-60.415 18.298-86.402 3.535zM885.988 666.099c2.962-12.060 8.129-25.416 11.481-29.679 8.268-10.511 0.72-39.239-10.31-39.239-4.883 0-14.715-7.049-21.85-15.663-15.836-19.12-23.493-19.604-38.243-2.414-6.253 7.287-17.481 15.703-24.95 18.702-17.173 6.894-23.137 22.716-14.217 37.712 3.8 6.389 6.91 14.29 6.91 17.558s2.561 13.013 5.69 21.655c5.308 14.657 8.189 15.631 42.897 14.505 37.2-1.207 37.208-1.212 42.591-23.136zM68.052 659.462c-14-2.898-28.139-7.009-31.417-9.136-8.987-5.831-29.693-51.020-25.429-55.498 4.082-4.285 111.61-5.505 115.624-1.311 1.368 1.428 1.567 18.345 0.442 37.592-2.29 39.206-3.647 39.855-59.219 28.353zM339.228 648.874c-1.596-9.476-2.246-25.688-1.446-36.026l1.455-18.796 395.833-3.302v75.352h-392.938l-2.901-17.23zM943.951 615.981v-25.061h39.229c34.118 0 38.978 1.429 37.3 10.964-2.066 11.742-48.177 39.159-65.858 39.159-8.471 0-10.671-5.167-10.671-25.061zM1.049 541.564c0-36.965 89.606-96.831 191.475-127.93 27.625-8.433 89.17-35.284 136.761-59.669 121.268-62.132 173.739-77.192 268.579-77.097 116.489 0.119 178.043 16.618 285.102 76.414 30.443 17.005 60.328 30.918 66.408 30.918 13.301 0 26.584 15.246 23.015 26.417-1.413 4.423 3.704 20.445 11.371 35.603s13.941 33.752 13.941 41.32 5.371 18.862 11.936 25.099c6.608 6.278 11.936 19.297 11.936 29.165v17.825h-45.464c-41.862 0-47.057-1.468-65.568-18.533-40.906-37.705-94.764-37.561-140.389 0.373l-21.84 18.159h-426.401l-20.106-18.533c-11.058-10.193-30.883-21.579-44.056-25.303-31.175-8.813-65.062 0.511-91.958 25.303-19.91 18.352-20.809 18.533-92.425 18.533h-72.318v-18.067zM160.692 492.165c73.924-45.285 29.834-52.522-51.912-8.521-56.355 30.334-62.032 41.942-17.509 35.801 20.32-2.803 45.824-12.825 69.423-27.28zM576.961 374.804v-56.388l-32.556 1.48c-41.094 1.868-113.032 26.646-182.291 62.786-29.542 15.416-55.051 29.343-56.687 30.949s2.305 6.975 8.758 11.928c9.499 7.292 35.629 8.685 137.254 7.32l125.522-1.687v-56.388zM855.64 417.489c9.207-9.26 16.739-19.311 16.739-22.336 0-8.559-81.585-45.77-131.635-60.042-24.805-7.073-62.403-13.723-83.551-14.777l-38.452-1.917-1.76 49.569c-0.968 27.263-0.381 53.342 1.305 57.954 2.405 6.58 26.494 8.385 111.844 8.385h108.778l16.739-16.835zM579.925 237.732c0-8.193 4.336-18.674 9.636-23.292 8.253-7.191 11.208-6.358 20.589 5.804 14.284 18.518 8.734 32.384-12.959 32.384-14.201 0-17.265-2.644-17.265-14.896z"></path>
</symbol>
<symbol id="icon-autoguru-useful-info" viewBox="0 0 1024 1024">
	<title>useful-info</title>
	<path class="path1" d="M409.177 996.557c-193.946-37.956-353.157-196.426-390.617-388.801-30.297-155.575 14.032-304.492 126.312-424.336 185.217-197.687 497.618-209.656 698.55-26.77 235.93 214.731 210.898 579.402-52.201 760.991-108.772 75.057-251.34 104.512-382.034 78.93zM604.879 713.696c0-21.069-2.198-25.465-12.73-25.465-23.004 0-26.144-19.827-26.144-165.105v-140.479h-24.921c-13.706 0-51.61 1.861-84.227 4.136l-59.306 4.136v24.512c0 16.999 2.837 24.512 9.256 24.512 5.090 0 13.837 4.502 19.437 10.004 8.407 8.261 10.181 27.749 10.181 111.83 0 105.836-4.263 126.453-26.144 126.453-10.532 0-12.73 4.396-12.73 25.465v25.465h207.33v-25.465zM547.034 332.204c37.902-37.243 15.792-87.941-41.098-94.244-18.123-2.007-38.69-0.020-50.795 4.906-33.149 13.492-45.26 60.020-22.896 87.968 10.565 13.203 30.12 19.13 64.576 19.575 26.224 0.338 34.331-2.601 50.212-18.206z"></path>
</symbol>
<symbol id="icon-autoguru-sober-driver" viewBox="0 0 1024 1024">
	<title>sober-driver</title>
	<path class="path1" d="M429.511 1006.617c-129.024-26.757-228.807-85.877-303.117-179.605-64.405-81.288-100.251-175.281-113.272-297.181-5.44-50.928 22.738-165.667 58.172-236.879 71.288-143.259 202.291-238.579 367.888-267.7 165.003-29.015 357.009 46.194 463.392 181.488 38.439 48.888 77.015 126.445 93.816 188.612 17.346 64.19 17.253 179.624-0.198 244.622-40.997 152.696-153.474 280.519-297.485 338.084-49.518 19.793-147.772 40.447-188.77 39.681-16.089-0.301-52.292-5.325-80.454-11.164zM562.416 921.379c57.357-7.192 127.33-31.902 172.209-60.815 18.301-11.789 33.296-22.779 33.323-24.422 0.025-1.643-18.51-21.309-41.195-43.703-29.564-29.185-46.077-41.228-58.311-42.524-14.266-1.512-17.367-4.609-18.895-18.875-1.188-11.088-11.077-26.532-28.231-44.089-22.141-22.66-29.818-27.022-47.559-27.022h-21.157l-1.813 54.544c-0.997 29.999-0.746 55.599 0.558 56.889s25.752 2.345 54.329 2.345c56.232 0 65.612 4.067 65.612 28.444 0 27.723-3.923 28.444-154.536 28.444-133.468 0-141.192-0.58-146.773-11.004-18.137-33.891-0.982-45.885 65.631-45.885h53.638v-113.778h-107.61l-3.323 88.178h-79.644l-0.707-42.054c-0.731-43.483-5.090-52.794-43.382-92.653-11.856-12.34-13.346-47.667-2.192-51.947 4.591-1.762 8.914-14.946 10.578-32.26 2.312-24.058 6.536-33.094 23.684-50.654 11.479-11.755 26.077-35.075 32.44-51.822l11.569-30.449-134.397-134.94-12.791 15.832c-23.127 28.625-52.747 91.281-64.499 136.432-14.569 55.976-15.748 142.235-2.705 197.822 37.418 159.46 179.965 288.838 341.51 309.962 49.752 6.506 52.757 6.506 104.631 0.001zM654.222 810.698c5.65-6.808 5.65-10.259 0-17.067-5.42-6.531-20.266-8.533-63.273-8.533h-56.192v-92.078c0-86.711-0.721-92.843-12.37-105.244-6.803-7.241-13.843-13.169-15.644-13.172s-3.275 46.717-3.275 103.822v103.829l-58.567 1.624c-60.374 1.674-69.771 5.759-61.687 26.821 2.779 7.241 23.003 8.533 133.6 8.533 108.904 0 131.489-1.403 137.406-8.533zM849.832 749.492c22.915-30.044 54.134-101.085 63.173-143.758 4.62-21.812 8.445-62.929 8.5-91.37 0.572-299.432-318.015-495.97-588.699-363.166-21.902 10.746-47.502 25.776-56.889 33.403l-17.067 13.865 65.327 65.764c35.931 36.169 67.293 65.764 69.689 65.764 9.413 0 2.602-10.409-38.389-58.68-23.422-27.581-42.584-52.541-42.584-55.467 0-3.204 82.786-5.32 208.119-5.32 129.372 0 207.398 2.050 206.222 5.419-1.043 2.981-22.235 29.054-47.093 57.942-26.582 30.891-42.311 53.484-38.19 54.859 13.498 4.499 41.21 31.205 49.98 48.165 4.869 9.415 12.567 29.63 17.109 44.921 4.923 16.579 18.156 38.949 32.778 55.413 19.684 22.162 25.286 33.37 28.394 56.802 2.13 16.055 6.344 29.192 9.365 29.192 6.887 0 7.317 43.877 0.454 46.459-6.164 2.32-46.161 54.427-46.161 60.138 0 5.367 92.375 98.203 97.716 98.203 2.256 0 10.466-8.342 18.244-18.539zM357.237 556.386c9.665-9.665 8.466-36.232-2.113-46.811-11.464-11.464-33.234-11.464-44.698 0-10.579 10.579-11.779 37.146-2.113 46.811 8.818 8.818 40.106 8.818 48.924 0zM723.437 553.798c12.801-11.585 13.2-23.883 1.324-40.839-12.679-18.101-41.466-15.108-52.982 5.509-7.498 13.424-7.354 16.543 1.376 29.867 11.389 17.381 34.355 19.876 50.282 5.463zM384 449.432c-12.221-12.516-24.212-22.756-26.646-22.756-6.237 0-12.218 26.702-8.279 36.965 2.278 5.937 11.502 8.546 30.212 8.546h26.933l-22.22-22.756zM619.229 323.834c44.917-53.374 80.504-98.184 79.113-99.581s-83.797-1.865-183.081-1.037l-180.515 1.504 82.938 97.868c45.616 53.827 82.938 101.629 82.938 106.231 0 4.6 7.040 16.761 15.644 27.025l15.644 18.661 2.844-26.816c2.618-24.679 9.35-34.55 84.474-123.853zM681.53 454.672c2.129-18.306-18.503-74.626-31.692-86.509-5.41-4.875-16.236-10.274-24.058-11.997-12.244-2.697-18.771 2.461-46.933 37.091-30.928 38.032-40.623 63.437-28.743 75.315 2.183 2.183 32.262 3.249 66.844 2.37 62.873-1.598 62.876-1.599 64.582-16.27z"></path>
</symbol>
<symbol id="icon-autoguru-taxi" viewBox="0 0 1024 1024">
	<title>taxi</title>
	<path class="path1" d="M14.367 610.213v-99.556h204.8v-205.073l196.262 3.113 1.553 100.98 1.554 100.976h198.847v199.111h-199.111v-199.111h-199.111v199.111h-204.8v-99.556zM822.189 610.213v-99.556h199.111v199.111h-199.111v-99.556zM619.961 503.462c-1.575-4.105-2.158-49.607-1.295-101.112l1.569-93.648h199.111v199.111l-98.258 1.557c-76.959 1.22-98.882-0.061-101.126-5.907z"></path>
</symbol>
</defs>
</svg>
